<?xml version="1.0" standalone="no"?>
<!DOCTYPE svg PUBLIC "-//W3C//DTD SVG 1.1//EN" "http://www.w3.org/Graphics/SVG/1.1/DTD/svg11.dtd" >
<svg>
<metadata>
Created by FontForge 20090622 at Tue Apr 28 12:27:21 2015
 By deploy user
&#194;&#169; 1988, 1990, 1993, 2002 Adobe Systems Incorporated. All rights reserved.
</metadata>
<defs>
<font id="HelveticaNeueLTStd-It" horiz-adv-x="556" >
  <font-face 
    font-family="HelveticaNeueLT Std"
    font-weight="400"
    font-style="italic"
    font-stretch="normal"
    units-per-em="1000"
    panose-1="2 11 6 4 2 2 2 9 2 4"
    ascent="714"
    descent="-286"
    x-height="517"
    cap-height="714"
    bbox="-166 -214 1106 957"
    underline-thickness="50"
    underline-position="-50"
    slope="-12"
    unicode-range="U+0020-U+FB02"
  />
<missing-glyph horiz-adv-x="571" 
d="M71 0v700h500v-700h-500zM321 395l170 255h-340zM351 350l170 -255v510zM151 50h340l-170 255zM121 605v-510l170 255z" />
    <glyph glyph-name="f_i" unicode="fi" horiz-adv-x="519" 
d="M292 0l108 517h85l-108 -517h-85zM527 714l-22 -104h-86l22 104h86zM23 0l96 442h-88l15 75h88l10.5 43.5t11 44t12.5 36.5t19 34.5t26 23.5t38 18t50 5q40 0 71 -8l-14 -72q-22 5 -40 5q-24 0 -40.5 -6.5t-26 -22t-14 -28t-10 -37t-9.5 -36.5h99l-14 -75h-100l-95 -442
h-85z" />
    <glyph glyph-name="f_l" unicode="fl" horiz-adv-x="519" 
d="M23 0l96 442h-88l15 75h88l10.5 43.5t11 44t12.5 36.5t19 34.5t26 23.5t38 18t50 5q40 0 71 -8l-14 -72q-22 5 -40 5q-24 0 -40.5 -6.5t-26 -22t-14 -28t-10 -37t-9.5 -36.5h99l-14 -75h-100l-95 -442h-85zM292 0l150 714h85l-150 -714h-85z" />
    <glyph glyph-name=".notdef" horiz-adv-x="571" 
d="M71 0v700h500v-700h-500zM321 395l170 255h-340zM351 350l170 -255v510zM151 50h340l-170 255zM121 605v-510l170 255z" />
    <glyph glyph-name=".null" horiz-adv-x="0" 
 />
    <glyph glyph-name="nonmarkingreturn" horiz-adv-x="333" 
 />
    <glyph glyph-name="space" unicode=" " horiz-adv-x="278" 
 />
    <glyph glyph-name="exclam" unicode="!" horiz-adv-x="259" 
d="M0 0l24 111h111l-24 -111h-111zM252 714l-47 -223l-90 -308h-46l43 308l47 223h93z" />
    <glyph glyph-name="quotedbl" unicode="&#x22;" horiz-adv-x="426" 
d="M146 456v258h68v-258h-68zM286 456v258h68v-258h-68z" />
    <glyph glyph-name="numbersign" unicode="#" 
d="M102 0l29 206h-97l9 68h97l21 150h-101l9 68h102l29 205h69l-29 -205h122l29 205h69l-29 -205h91l-9 -68h-91l-21 -150h93l-9 -68h-93l-29 -206h-69l29 206h-123l-29 -206h-69zM353 424h-122l-21 -150h122z" />
    <glyph glyph-name="dollar" unicode="$" 
d="M259 418l48 238q-34 0 -66.5 -10.5t-59 -40.5t-26.5 -76q0 -38 26 -65t65 -40zM293 322l-54 -264q21 -5 51.5 1t61.5 21t52.5 46t21.5 71q0 20 -3 35t-12 27l-14.5 19t-22.5 15t-23 10.5t-29.5 9.5t-28.5 9zM154 -97l18 85q-94 16 -140.5 79.5t-41.5 166.5h90
q-8 -145 108 -169l54 269q-86 27 -131.5 66.5t-45.5 118.5q0 100 77.5 161t179.5 51l13 63h53l-14 -69q76 -21 121.5 -77.5t40.5 -144.5h-90q4 118 -87 148l-49 -246l54 -19q152 -43 152 -180q0 -76 -46 -132t-112 -78.5t-134 -12.5l-17 -80h-53z" />
    <glyph glyph-name="percent" unicode="%" horiz-adv-x="926" 
d="M147 458q0 -47 18.5 -70.5t60.5 -23.5q41 0 68.5 35t37.5 79t10 91q0 85 -73 85q-58 0 -90 -66t-32 -130zM79 454q0 58 18.5 114t62 98.5t104.5 42.5q146 0 146 -145q0 -61 -18 -117t-62 -97t-107 -41q-67 0 -105.5 39t-38.5 106zM513 133q0 58 18.5 114t62 98.5
t104.5 42.5q146 0 146 -145q0 -61 -18 -117t-62 -97t-107 -41q-67 0 -105.5 39t-38.5 106zM581 137q0 -47 18.5 -70.5t60.5 -23.5q41 0 68.5 35t37.5 79t10 91q0 85 -73 85q-58 0 -90 -66t-32 -130zM209 -28l435 753h64l-435 -753h-64z" />
    <glyph glyph-name="ampersand" unicode="&#x26;" horiz-adv-x="630" 
d="M384 130l-127 208q-31 -16 -53 -29.5t-47 -34.5t-38 -47.5t-13 -57.5q0 -46 36.5 -76t86.5 -30q45 0 79.5 16t75.5 51zM468 0l-44 74q-89 -86 -204 -86q-86 0 -142.5 50t-56.5 135q0 42 16.5 77.5t49.5 63t61 45t72 39.5q-19 29 -29 47.5t-20 49.5t-10 61q0 71 50 114.5
t128 43.5q67 0 115 -35.5t48 -100.5q0 -36 -15 -67t-44.5 -56.5t-54 -41.5t-62.5 -37l112 -184q54 74 63 145h82q-26 -117 -103 -207l85 -130h-97zM246 551q0 -45 45 -117q75 43 98 69q28 30 28 62q0 33 -22.5 53.5t-56.5 20.5q-40 0 -66 -24t-26 -64z" />
    <glyph glyph-name="quotesingle" unicode="'" horiz-adv-x="278" 
d="M142 456v258h68v-258h-68z" />
    <glyph glyph-name="parenleft" unicode="(" horiz-adv-x="259" 
d="M172 -198h-56q-36 80 -58.5 181t-22.5 187q0 82 19 158.5t56 146.5t80 129t103 127h70q-243 -290 -243 -597q0 -182 52 -332z" />
    <glyph glyph-name="parenright" unicode=")" horiz-adv-x="259" 
d="M-47 -198h-70q243 286 243 596q0 183 -52 333h56q36 -83 58.5 -183t22.5 -186q0 -82 -19 -158.5t-56 -146t-80 -128.5t-103 -127z" />
    <glyph glyph-name="asterisk" unicode="*" horiz-adv-x="352" 
d="M272 714l-25 -113l110 11l5 -48l-107 -14l49 -100l-49 -23l-47 103l-78 -87l-37 37l77 84l-95 48l25 46l96 -49l22 105h54z" />
    <glyph glyph-name="plus" unicode="+" horiz-adv-x="600" 
d="M334 506v-219h218v-68h-218v-219h-68v219h-218v68h218v219h68z" />
    <glyph glyph-name="comma" unicode="," horiz-adv-x="278" 
d="M15 0l24 111h111q-4 -17 -11.5 -56t-12 -59t-16.5 -50.5t-26.5 -46.5t-40 -29.5t-59.5 -16.5l10 48q25 4 41.5 21t22 32.5t13.5 45.5h-56z" />
    <glyph glyph-name="hyphen" unicode="-" horiz-adv-x="389" 
d="M26 238l16 80h290l-16 -80h-290z" />
    <glyph glyph-name="period" unicode="." horiz-adv-x="278" 
d="M15 0l24 111h111l-24 -111h-111z" />
    <glyph glyph-name="slash" unicode="/" horiz-adv-x="333" 
d="M-18 -17l296 748h73l-296 -748h-73z" />
    <glyph glyph-name="zero" unicode="0" 
d="M25 263q0 65 18 138t53 144t97.5 117.5t141.5 46.5q95 0 143 -64t48 -204q0 -43 -9 -97t-31.5 -118t-55.5 -116t-87.5 -87t-121.5 -35q-196 0 -196 275zM115 249q0 -186 115 -186q55 0 98 45.5t65 109t32.5 116.5t10.5 83q0 6 0.5 28t0 32l-1.5 31t-4 32.5l-7.5 28.5
t-13 26.5t-19.5 19.5t-27 14.5t-36 4.5q-54 0 -97.5 -45t-67 -110.5t-36 -126t-12.5 -103.5z" />
    <glyph glyph-name="one" unicode="1" 
d="M433 709l-151 -709h-90l115 539q-84 -20 -183 -20l14 68q68 0 133.5 32t95.5 90h66z" />
    <glyph glyph-name="two" unicode="2" 
d="M158 468h-90q12 112 77.5 176.5t177.5 64.5q87 0 143 -51t56 -138q0 -49 -19 -91t-58.5 -77t-70.5 -56.5t-88 -53.5t-77 -45q-94 -60 -116 -122h369l-16 -75h-452q4 52 22.5 95t43 72t61.5 57t70 47l76.5 45.5t72.5 48.5q45 34 68.5 68t23.5 82q0 55 -32 87t-87 32
q-68 0 -109.5 -48t-45.5 -118z" />
    <glyph glyph-name="three" unicode="3" 
d="M214 336l15 68q196 -9 196 132q0 98 -120 98q-126 0 -144 -144h-90q14 96 73.5 157.5t165.5 61.5q96 0 150.5 -44.5t54.5 -132.5q0 -59 -37.5 -103t-89.5 -59q92 -40 92 -147q0 -38 -16 -78t-45.5 -76t-80.5 -58.5t-114 -22.5q-108 0 -166.5 57.5t-56.5 173.5h90
q-3 -67 27.5 -111.5t107.5 -44.5q72 0 118 42.5t46 113.5q0 39 -14.5 63.5t-42.5 35.5t-54 14.5t-65 3.5z" />
    <glyph glyph-name="four" unicode="4" 
d="M387 562l-293 -321h228l67 321h-2zM271 0l36 166h-311l17 84l420 459h72l-98 -468h94l-15 -75h-94l-36 -166h-85z" />
    <glyph glyph-name="five" unicode="5" 
d="M523 697l-15 -75h-291l-56 -192l2 -2q49 39 125 39q93 0 146 -60t53 -154q0 -122 -80 -198q-75 -67 -187 -67q-98 0 -155.5 53.5t-57.5 148.5h90q0 -127 128 -127q80 0 126 53t46 133q0 68 -36.5 105.5t-104.5 37.5q-38 0 -73 -18.5t-53 -50.5h-76l110 374h359z" />
    <glyph glyph-name="six" unicode="6" 
d="M405 244q0 62 -34 99.5t-96 37.5q-73 0 -114.5 -50t-41.5 -125q0 -65 33 -104t98 -39q73 0 114 53t41 128zM545 525h-90q-2 109 -110 109q-38 0 -70 -17t-51.5 -39.5t-38 -61t-27 -64.5t-20.5 -67h2q23 35 65.5 53t89.5 18q87 0 143.5 -60t56.5 -148q0 -113 -69 -186.5
t-184 -73.5q-106 0 -159.5 65.5t-53.5 173.5q0 158 60 291q40 94 104.5 142.5t165.5 48.5q87 0 135.5 -49t50.5 -135z" />
    <glyph glyph-name="seven" unicode="7" 
d="M576 697l-12 -71q-117 -109 -217 -283.5t-153 -342.5h-97q108 340 374 622h-369l17 75h457z" />
    <glyph glyph-name="eight" unicode="8" 
d="M194 516q0 -53 33 -79t87 -26q50 0 82.5 32.5t32.5 82.5q0 53 -30 80.5t-83 27.5q-54 0 -88 -32.5t-34 -85.5zM249 63q68 0 110.5 39t42.5 106q0 58 -34.5 93t-96.5 35q-72 0 -115.5 -38t-43.5 -108q0 -62 37.5 -94.5t99.5 -32.5zM104 519q0 89 62.5 139.5t153.5 50.5
q82 0 140.5 -48t58.5 -128q0 -58 -35.5 -102t-91.5 -57v-2q50 -21 75 -65.5t25 -101.5q0 -95 -70.5 -156t-166.5 -61q-100 0 -166.5 51.5t-66.5 149.5q0 79 46 131t124 66v2q-38 17 -63 53.5t-25 77.5z" />
    <glyph glyph-name="nine" unicode="9" 
d="M274 314q73 0 114 50.5t41 124.5q0 68 -35 106.5t-102 38.5q-69 0 -108.5 -56t-39.5 -127q0 -62 34 -99.5t96 -37.5zM4 169h90q0 -106 103 -106q39 0 71.5 16.5t53 38.5t39.5 59.5t28.5 63.5t21.5 66l-2 2q-23 -35 -66 -52.5t-90 -17.5q-87 0 -143 60t-56 148
q0 111 68.5 186.5t178.5 75.5q109 0 163.5 -63.5t54.5 -174.5q0 -151 -59 -287q-43 -98 -102.5 -147t-159.5 -49q-91 0 -143 46t-51 135z" />
    <glyph glyph-name="colon" unicode=":" horiz-adv-x="278" 
d="M15 0l22 111h113l-23 -111h-112zM234 517l-23 -111h-112l23 111h112z" />
    <glyph glyph-name="semicolon" unicode=";" horiz-adv-x="278" 
d="M15 0l24 111h111q-4 -17 -11.5 -56t-12 -59t-16.5 -50.5t-26.5 -46.5t-40 -29.5t-59.5 -16.5l10 48q25 4 41.5 21t22 32.5t13.5 45.5h-56zM234 517l-24 -111h-111l24 111h111z" />
    <glyph glyph-name="less" unicode="&#x3c;" horiz-adv-x="600" 
d="M554 514v-68l-425 -193l425 -193v-68l-508 230v62z" />
    <glyph glyph-name="equal" unicode="=" horiz-adv-x="600" 
d="M552 388v-68h-504v68h504zM48 118v68h504v-68h-504z" />
    <glyph glyph-name="greater" unicode="&#x3e;" horiz-adv-x="600" 
d="M46 -8v68l425 193l-425 193v68l508 -230v-62z" />
    <glyph glyph-name="question" unicode="?" 
d="M171 488h-85q7 102 74 168t168 66q83 0 145 -43t62 -122q0 -48 -16.5 -87t-41.5 -62.5t-55.5 -47.5t-58 -43t-50 -48t-30.5 -64l-4 -22h-83q15 84 50 129q28 37 104 90q95 67 95 140q0 52 -31.5 78.5t-83.5 26.5q-69 0 -111 -44.5t-48 -114.5zM145 0l24 111h111l-24 -111
h-111z" />
    <glyph glyph-name="at" unicode="@" horiz-adv-x="800" 
d="M420 505q-66 0 -113 -68.5t-47 -140.5q0 -42 24.5 -69.5t61.5 -27.5q61 0 108 72.5t47 140.5q0 36 -25 64.5t-56 28.5zM618 554l-84 -284q-11 -37 -11 -51q0 -31 24 -31q46 0 92 75.5t46 154.5q0 114 -80.5 186t-190.5 72q-127 0 -215.5 -94.5t-88.5 -226.5
q0 -133 91 -225t218 -92q71 0 138.5 33t109.5 88h63q-48 -82 -132 -129t-181 -47q-158 0 -266.5 109.5t-108.5 267.5q0 154 109 262.5t262 108.5q141 0 240.5 -87.5t99.5 -220.5q0 -62 -23 -118t-58.5 -92.5t-76 -58t-76.5 -21.5q-27 0 -45 16.5t-19 48.5h-3
q-57 -67 -124 -67q-63 0 -103 45.5t-40 112.5q0 110 67 197t168 87q81 0 112 -82l23 63h63z" />
    <glyph glyph-name="A" unicode="A" horiz-adv-x="667" 
d="M410 630l-191 -335h246l-53 335h-2zM-55 0l430 714h104l129 -714h-98l-33 215h-301l-125 -215h-106z" />
    <glyph glyph-name="B" unicode="B" horiz-adv-x="685" 
d="M167 327l-52 -247h230q24 0 48 4.5t55 17t50.5 43.5t19.5 76q0 62 -39 84t-108 22h-204zM7 0l149 714h287q199 0 199 -171q0 -62 -37.5 -112.5t-98.5 -59.5v-2q50 -15 78.5 -53.5t28.5 -94.5q0 -100 -72 -160.5t-181 -60.5h-353zM231 634l-48 -227h212q74 0 113 34.5
t39 101.5q0 30 -12.5 49.5t-36 28t-44 11t-47.5 2.5h-176z" />
    <glyph glyph-name="C" unicode="C" horiz-adv-x="722" 
d="M565 241h95q-28 -123 -107.5 -190.5t-208.5 -67.5q-146 0 -226 82.5t-80 230.5q0 117 46 215t137 159t209 61q121 0 196.5 -64t75.5 -183h-95q0 82 -48 124.5t-129 42.5q-95 0 -164.5 -54t-101 -132.5t-31.5 -168.5q0 -107 53.5 -170t157.5 -63q171 0 221 178z" />
    <glyph glyph-name="D" unicode="D" horiz-adv-x="704" 
d="M7 0l151 714h250q132 0 201 -72t69 -201q0 -201 -109.5 -321t-287.5 -120h-274zM234 634l-117 -554h165q96 0 166.5 52.5t102.5 130.5t32 168q0 203 -197 203h-152z" />
    <glyph glyph-name="E" unicode="E" horiz-adv-x="611" 
d="M7 0l151 714h492l-16 -80h-397l-48 -227h370l-16 -80h-371l-52 -247h402l-18 -80h-497z" />
    <glyph glyph-name="F" unicode="F" horiz-adv-x="574" 
d="M7 0l149 714h470l-17 -80h-375l-47 -227h330l-17 -80h-330l-68 -327h-95z" />
    <glyph glyph-name="G" unicode="G" horiz-adv-x="759" 
d="M563 0l-6 71q-39 -43 -96 -65.5t-117 -22.5q-146 0 -226 82.5t-80 230.5q0 117 46 215t137 159t209 61q126 0 206.5 -60.5t80.5 -178.5h-95q0 78 -54.5 118.5t-137.5 40.5q-95 0 -164.5 -54t-101 -132.5t-31.5 -168.5q0 -107 53.5 -170t157.5 -63q201 0 258 233h-228
l16 80h311l-78 -376h-60z" />
    <glyph glyph-name="H" unicode="H" horiz-adv-x="722" 
d="M7 0l150 714h96l-65 -307h374l64 307h95l-150 -714h-95l69 327h-374l-69 -327h-95z" />
    <glyph glyph-name="I" unicode="I" horiz-adv-x="259" 
d="M7 0l150 714h95l-150 -714h-95z" />
    <glyph glyph-name="J" unicode="J" horiz-adv-x="519" 
d="M525 714l-113 -538q-21 -98 -71 -145.5t-152 -47.5q-89 0 -143.5 40t-54.5 112q0 50 9 99h96q-9 -42 -10 -74q0 -97 105 -97q34 0 58.5 13t39.5 40t22.5 49.5t15.5 59.5l104 489h94z" />
    <glyph glyph-name="K" unicode="K" horiz-adv-x="667" 
d="M7 0l151 714h95l-75 -352l2 -2l404 354h127l-344 -294l229 -420h-105l-195 362l-143 -121l-51 -241h-95z" />
    <glyph glyph-name="L" unicode="L" 
d="M7 0l150 714h95l-132 -634h377l-17 -80h-473z" />
    <glyph glyph-name="M" unicode="M" horiz-adv-x="870" 
d="M7 0l150 714h132l95 -614h2l353 614h132l-151 -714h-91l146 625h-2l-364 -625h-91l-93 625h-2l-125 -625h-91z" />
    <glyph glyph-name="N" unicode="N" horiz-adv-x="722" 
d="M7 0l151 714h102l255 -591h2l119 591h92l-151 -714h-102l-253 587h-2l-121 -587h-92z" />
    <glyph glyph-name="O" unicode="O" horiz-adv-x="759" 
d="M38 296q0 117 46 215t137 159t209 61q136 0 217 -90t81 -226q0 -113 -45.5 -211t-134.5 -159.5t-204 -61.5q-146 0 -226 82.5t-80 230.5zM133 296q0 -107 53.5 -170t157.5 -63q68 0 124.5 31t91.5 81.5t54 112.5t19 127q0 103 -53.5 169.5t-149.5 66.5q-95 0 -164.5 -54
t-101 -132.5t-31.5 -168.5z" />
    <glyph glyph-name="P" unicode="P" horiz-adv-x="648" 
d="M7 0l149 714h281q103 0 157.5 -50t54.5 -147q0 -29 -8 -58t-28 -59.5t-50 -54t-78.5 -38.5t-108.5 -15h-212l-62 -292h-95zM236 634l-55 -262h215q75 0 116.5 40t41.5 105q0 62 -32.5 89.5t-84.5 27.5h-201z" />
    <glyph glyph-name="Q" unicode="Q" horiz-adv-x="759" 
d="M663 -18l-54 -56l-99 96q-75 -39 -166 -39q-146 0 -226 82.5t-80 230.5q0 117 46 215t137 159t209 61q136 0 217 -90t81 -226q0 -104 -40 -196.5t-112 -152.5zM381 146l54 57l79 -77q57 49 88 127t31 162q0 103 -53.5 169.5t-149.5 66.5q-95 0 -164.5 -54t-101 -132.5
t-31.5 -168.5q0 -107 53.5 -170t157.5 -63q57 0 102 21z" />
    <glyph glyph-name="R" unicode="R" horiz-adv-x="685" 
d="M236 634l-53 -249h214q53 0 90.5 14.5t54.5 37.5t24 44.5t7 44.5q0 108 -140 108h-197zM7 0l151 714h275q48 0 88 -9t74.5 -29t53.5 -56.5t19 -87.5q0 -72 -45 -127t-116 -65v-2q44 -13 61.5 -55t11.5 -100q-1 -17 -7.5 -59t-5.5 -70t14 -54h-99q-18 51 2 153q5 28 6 50
t-3 37.5t-8 27.5t-14 18.5l-16.5 11t-19.5 6t-18.5 2t-18.5 0t-15 -0.5h-211l-64 -305h-95z" />
    <glyph glyph-name="S" unicode="S" horiz-adv-x="648" 
d="M614 503h-95q4 148 -164 148q-62 0 -113.5 -29.5t-51.5 -87.5q0 -48 30 -74t86 -41l96 -26q38 -10 65.5 -22.5t53.5 -34.5t39.5 -56t13.5 -80q0 -70 -43.5 -121t-105 -73.5t-129.5 -22.5q-136 0 -213 62.5t-68 188.5h95q-4 -92 46 -131.5t144 -39.5q74 0 126.5 35
t52.5 102q0 50 -32.5 75.5t-94.5 42.5l-97 26q-160 43 -160 180q0 97 78 152t182 55q73 0 131 -23t94 -76t34 -129z" />
    <glyph glyph-name="T" unicode="T" horiz-adv-x="574" 
d="M653 714l-18 -80h-240l-134 -634h-95l134 634h-240l17 80h576z" />
    <glyph glyph-name="U" unicode="U" horiz-adv-x="722" 
d="M728 714l-89 -428q-24 -108 -36 -137q-34 -85 -108 -125.5t-170 -40.5q-156 0 -223 80.5t-36 230.5l89 420h95l-94 -444q-24 -102 20 -154.5t149 -52.5q57 0 95.5 15t62 47.5t36 68t24.5 92.5l90 428h95z" />
    <glyph glyph-name="V" unicode="V" horiz-adv-x="611" 
d="M691 714l-403 -714h-107l-102 714h97l73 -621h2l339 621h101z" />
    <glyph glyph-name="W" unicode="W" horiz-adv-x="926" 
d="M983 714l-328 -714h-99l-45 616h-2l-282 -616h-102l-45 714h94l25 -601h2l274 601h108l40 -603h2l260 603h98z" />
    <glyph glyph-name="X" unicode="X" horiz-adv-x="611" 
d="M-44 0l310 373l-172 341h102l132 -282l229 282h107l-294 -354l181 -360h-98l-144 302l-244 -302h-109z" />
    <glyph glyph-name="Y" unicode="Y" horiz-adv-x="611" 
d="M193 0l61 287l-188 427h101l146 -346l271 346h110l-346 -427l-62 -287h-93z" />
    <glyph glyph-name="Z" unicode="Z" horiz-adv-x="611" 
d="M-38 0l17 79l536 555h-409l20 80h521l-17 -81l-540 -553h456l-17 -80h-567z" />
    <glyph glyph-name="bracketleft" unicode="[" horiz-adv-x="259" 
d="M-29 -198l192 929h189l-14 -65h-108l-164 -799h108l-14 -65h-189z" />
    <glyph glyph-name="backslash" unicode="\" horiz-adv-x="333" 
d="M55 731l296 -748h-73l-296 748h73z" />
    <glyph glyph-name="bracketright" unicode="]" horiz-adv-x="259" 
d="M253 731l-192 -929h-189l14 65h108l164 799h-108l14 65h189z" />
    <glyph glyph-name="asciicircum" unicode="^" horiz-adv-x="600" 
d="M50 264l218 433h64l218 -433h-70l-181 360l-178 -360h-71z" />
    <glyph glyph-name="underscore" unicode="_" horiz-adv-x="500" 
d="M0 -125v50h500v-50h-500z" />
    <glyph glyph-name="grave" unicode="`" horiz-adv-x="222" 
d="M177 731l67 -143h-67l-101 143h101z" />
    <glyph glyph-name="a" unicode="a" horiz-adv-x="519" 
d="M75 135q0 -34 27 -53t66 -19q101 0 145 68q10 14 17.5 32t11 30t9 37l7.5 34h-2q-11 -6 -24 -11t-34 -9t-31.5 -5.5t-40.5 -5t-36 -4.5q-54 -8 -84.5 -28.5t-30.5 -65.5zM138 361h-85q12 82 74 125t150 43q189 0 189 -132q0 -19 -16 -94l-33 -141q-1 -7 -5 -22t-6.5 -28
t-2.5 -24q0 -32 25 -32q8 0 27 7l-13 -63q-22 -12 -52 -12q-35 0 -53 19.5t-14 53.5l-2 2q-56 -75 -173 -75q-70 0 -114 35.5t-44 110.5q0 31 9.5 56t21.5 41.5t37 29.5t41.5 19.5t51 12t49.5 7t51 4.5q33 3 49 5t35 7.5t27 13.5t13.5 21.5t5.5 34.5q0 68 -104 68
q-54 0 -93 -23t-46 -70z" />
    <glyph glyph-name="b" unicode="b" horiz-adv-x="593" 
d="M454 306q0 65 -30.5 106.5t-87.5 41.5q-43 0 -79 -16.5t-60 -43.5t-40.5 -62t-24 -70.5t-7.5 -69.5q0 -60 38.5 -94.5t102.5 -34.5q58 0 102.5 40.5t65 94.5t20.5 108zM-5 0l151 714h85l-55 -261l2 -2q60 78 158 78q100 0 151.5 -60t51.5 -163q0 -129 -74 -223.5
t-199 -94.5q-67 0 -116 33.5t-58 74.5h-2l-19 -96h-76z" />
    <glyph glyph-name="c" unicode="c" horiz-adv-x="537" 
d="M501 353h-85q0 47 -29.5 74t-79.5 27q-92 0 -146.5 -75t-54.5 -168q0 -66 30.5 -107t97.5 -41q53 0 93 28.5t58 77.5h85q-22 -86 -84.5 -133.5t-151.5 -47.5q-104 0 -158.5 58.5t-54.5 164.5q0 131 77 224.5t209 93.5q90 0 140.5 -44t53.5 -132z" />
    <glyph glyph-name="d" unicode="d" horiz-adv-x="593" 
d="M102 200q0 -137 133 -137q61 0 109 42.5t70.5 100t22.5 114.5q0 60 -34.5 97t-95.5 37q-94 0 -149.5 -79.5t-55.5 -174.5zM606 714l-151 -714h-80l18 74h-2q-37 -48 -77 -67t-94 -19q-97 0 -150 57.5t-53 154.5q0 81 33 155t100.5 124t153.5 50q55 0 101 -22t60 -69h2
l55 276h84z" />
    <glyph glyph-name="e" unicode="e" horiz-adv-x="537" 
d="M110 308h300q5 61 -25 103.5t-96 42.5q-133 0 -179 -146zM487 233h-389q-3 -23 -3 -45q0 -57 39.5 -91t94.5 -34q112 0 149 99h85q-20 -83 -83.5 -128.5t-150.5 -45.5q-61 0 -106 19.5t-68.5 51.5t-34 66t-10.5 71q0 145 78.5 239t187.5 94q219 0 219 -229q0 -30 -8 -67z
" />
    <glyph glyph-name="f" unicode="f" horiz-adv-x="296" 
d="M23 0l96 442h-88l15 75h88l10.5 43.5t11 44t12.5 36.5t19 34.5t26 23.5t38 18t50 5q40 0 71 -8l-14 -72q-22 5 -40 5q-24 0 -40.5 -6.5t-26 -22t-14 -28t-10 -37t-9.5 -36.5h99l-14 -75h-100l-95 -442h-85z" />
    <glyph glyph-name="g" unicode="g" horiz-adv-x="574" 
d="M106 210q0 -59 33 -99t94 -40q46 0 83 24t59 61.5t34 79.5t12 83q0 63 -33.5 99t-98.5 36q-56 0 -99.5 -42t-63.5 -96.5t-20 -105.5zM552 517l-93 -442q-22 -99 -40 -141q-62 -144 -235 -144q-87 0 -145.5 39.5t-60.5 120.5h85q6 -85 130 -85q38 0 67.5 13t46.5 29
t32.5 49.5t21.5 53.5t17 63l-2 2q-53 -79 -161 -79q-93 0 -143.5 59t-50.5 155q0 78 31.5 150t94.5 120.5t143 48.5q58 0 105.5 -29t58.5 -76v-2h2l16 95h80z" />
    <glyph glyph-name="h" unicode="h" 
d="M-5 0l151 714h85l-61 -273l2 -2q32 43 81 66.5t103 23.5q144 0 144 -133q0 -34 -15 -101l-63 -295h-85l66 302q12 57 12 80q0 35 -25 53.5t-65 18.5q-72 0 -128 -60q-37 -32 -57 -108l-60 -286h-85z" />
    <glyph glyph-name="i" unicode="i" horiz-adv-x="222" 
d="M-5 0l108 517h85l-108 -517h-85zM230 714l-22 -104h-86l22 104h86z" />
    <glyph glyph-name="j" unicode="j" horiz-adv-x="222" 
d="M-120 -192l15 75q22 -6 33 -6q27 0 38.5 20t23.5 77l113 543h85l-130 -614q-24 -101 -122 -101q-34 0 -56 6zM230 714l-22 -104h-86l22 104h86z" />
    <glyph glyph-name="k" unicode="k" horiz-adv-x="481" 
d="M-5 0l151 714h84l-89 -420l2 -2l260 225h111l-225 -191l128 -326h-95l-101 275l-102 -91l-39 -184h-85z" />
    <glyph glyph-name="l" unicode="l" horiz-adv-x="222" 
d="M-5 0l150 714h85l-150 -714h-85z" />
    <glyph glyph-name="m" unicode="m" horiz-adv-x="852" 
d="M-5 0l110 517h79l-19 -77l2 -2q74 91 180 91q109 0 130 -93q30 42 78 67.5t99 25.5q61 0 102.5 -28.5t41.5 -87.5q0 -41 -15 -103l-65 -310h-85l72 328q8 32 8 56q0 30 -22.5 50t-56.5 20t-70.5 -21t-59.5 -50q-31 -33 -48 -116l-57 -267h-85l62 295q16 71 16 91
q0 32 -19 50t-53 18q-33 0 -68 -19t-59 -47q-25 -24 -35 -48.5t-20 -68.5l-58 -271h-85z" />
    <glyph glyph-name="n" unicode="n" 
d="M-5 0l109 517h82l-16 -78h2q32 43 81 66.5t103 23.5q144 0 144 -133q0 -34 -15 -101l-63 -295h-85l66 302q12 57 12 80q0 35 -25 53.5t-65 18.5q-72 0 -128 -60q-37 -32 -57 -108l-60 -286h-85z" />
    <glyph glyph-name="o" unicode="o" horiz-adv-x="574" 
d="M102 205q0 -65 37 -103.5t105 -38.5q58 0 103.5 40.5t67 95.5t21.5 109q0 64 -34.5 105t-101.5 41q-90 0 -144 -79t-54 -170zM17 204q0 133 79 229t210 96q104 0 159.5 -55.5t55.5 -158.5q0 -134 -78 -230.5t-208 -96.5q-100 0 -159 60t-59 156z" />
    <glyph glyph-name="p" unicode="p" horiz-adv-x="593" 
d="M455 317q0 137 -133 137q-61 0 -109 -42.5t-70.5 -100t-22.5 -114.5q0 -60 34.5 -97t95.5 -37q94 0 149.5 79.5t55.5 174.5zM-49 -198l151 715h80l-18 -74h2q37 48 77 67t94 19q97 0 150 -57.5t53 -154.5q0 -81 -33 -155t-100.5 -124t-153.5 -50q-55 0 -101 22t-60 69h-2
l-55 -277h-84z" />
    <glyph glyph-name="q" unicode="q" horiz-adv-x="593" 
d="M561 517l-151 -715h-86l56 264h-2q-64 -78 -163 -78q-98 0 -148 61.5t-50 162.5q0 127 75 222t197 95q130 0 167 -94h2l17 82h86zM102 212q0 -66 32.5 -107.5t99.5 -41.5q64 0 110.5 44t66.5 102.5t20 117.5t-35.5 93t-97.5 34q-88 0 -142 -76.5t-54 -165.5z" />
    <glyph glyph-name="r" unicode="r" horiz-adv-x="333" 
d="M-5 0l108 517h80l-25 -111h2q69 123 188 123h30l-20 -91q-8 1 -25 1q-31 0 -51 -5q-66 -17 -110 -84q-26 -37 -43 -121l-49 -229h-85z" />
    <glyph glyph-name="s" unicode="s" horiz-adv-x="481" 
d="M440 365h-85q3 42 -28.5 65.5t-78.5 23.5q-110 0 -110 -66q0 -10 3.5 -18.5t12 -16.5t16 -13.5t22.5 -12.5t24.5 -11t29 -11.5t28.5 -11.5q64 -26 100.5 -58t36.5 -87q0 -80 -63 -120t-148 -40q-97 0 -153.5 41t-55.5 134h85q-5 -100 132 -100q48 0 83 19t35 60
q0 10 -3.5 19t-12 17.5t-16 14t-23 13t-24 11l-29 12t-28.5 11.5q-64 25 -100.5 56t-36.5 84q0 68 57.5 108.5t134.5 40.5q81 0 138 -40t57 -124z" />
    <glyph glyph-name="t" unicode="t" horiz-adv-x="315" 
d="M253 670l-32 -153h103l-16 -75h-103l-64 -304q0 -2 -1.5 -14.5t-1.5 -19.5q0 -35 51 -35q20 0 49 9l-15 -78q-30 -6 -60 -6q-116 0 -116 84q0 16 5 43l68 321h-87l16 75h87l32 153h85z" />
    <glyph glyph-name="u" unicode="u" 
d="M520 517l-109 -517h-82l16 78h-2q-32 -43 -81 -66.5t-103 -23.5q-144 0 -144 133q0 34 15 101l63 295h85l-66 -302q-12 -57 -12 -80q0 -35 25 -53.5t65 -18.5q68 0 119.5 50t65.5 118l60 286h85z" />
    <glyph glyph-name="v" unicode="v" horiz-adv-x="481" 
d="M494 517l-287 -517h-91l-74 517h90l44 -430h2l224 430h92z" />
    <glyph glyph-name="w" unicode="w" horiz-adv-x="759" 
d="M762 517l-267 -517h-90l-26 402h-2l-185 -402h-90l-61 517h90l32 -411h2l186 411h96l25 -411h2l196 411h92z" />
    <glyph glyph-name="x" unicode="x" horiz-adv-x="481" 
d="M-66 0l242 274l-115 243h98l78 -188l154 188h103l-222 -250l132 -267h-97l-94 212l-176 -212h-103z" />
    <glyph glyph-name="y" unicode="y" horiz-adv-x="481" 
d="M505 517l-342 -605q-26 -41 -43.5 -63t-50 -40.5t-73.5 -18.5q-33 0 -59 13l15 69q23 -14 49 -14q46 0 80 56l52 86l-91 517h91l60 -411h2l217 411h93z" />
    <glyph glyph-name="z" unicode="z" horiz-adv-x="444" 
d="M-53 0l12 64l360 378h-278l15 75h393l-13 -61l-363 -381h309l-14 -75h-421z" />
    <glyph glyph-name="braceleft" unicode="{" horiz-adv-x="333" 
d="M395 731l-13 -60h-50q-48 0 -66 -88l-37 -181q-13 -61 -49 -94t-66 -40l-1 -3q22 -3 43.5 -26t21.5 -70q0 -10 -6 -38l-37 -181q-3 -17 -3 -34q0 -54 33 -54h50l-13 -60h-70q-33 0 -59 24t-26 66q0 21 4 41l38 182q4 20 4 41q0 34 -18.5 55t-44.5 21l15 68q33 0 64.5 33
t42.5 85l38 182q12 60 53 95.5t82 35.5h70z" />
    <glyph glyph-name="bar" unicode="|" horiz-adv-x="222" 
d="M77 -214v1000h68v-1000h-68z" />
    <glyph glyph-name="braceright" unicode="}" horiz-adv-x="333" 
d="M-91 -198l13 60h50q48 0 66 88l37 181q13 61 49 94t66 40l1 3q-22 3 -43.5 26t-21.5 70q0 10 6 38l37 181q3 17 3 34q0 54 -33 54h-50l13 60h70q33 0 59 -24t26 -66q0 -21 -4 -41l-38 -182q-4 -20 -4 -41q0 -35 18.5 -56t44.5 -21l-15 -68q-33 0 -64.5 -33t-42.5 -84
l-38 -182q-12 -60 -53 -95.5t-82 -35.5h-70z" />
    <glyph glyph-name="asciitilde" unicode="~" horiz-adv-x="600" 
d="M495 319l36 -50q-20 -27 -33 -42t-38 -29.5t-54 -14.5q-42 0 -102 33q-69 39 -115 39q-49 0 -84 -76l-36 50q45 86 125 86q39 0 111 -32q10 -4 34.5 -16.5t40 -18t27.5 -5.5q19 0 37 14t26 25t25 37z" />
    <glyph glyph-name="uni00A0" unicode="&#xa0;" horiz-adv-x="278" 
 />
    <glyph glyph-name="exclamdown" unicode="&#xa1;" horiz-adv-x="259" 
d="M225 517l-24 -111h-111l24 111h111zM-27 -198l47 223l90 308h46l-43 -308l-47 -223h-93z" />
    <glyph glyph-name="cent" unicode="&#xa2;" 
d="M116 211q0 -136 102 -150l84 398q-58 -4 -101.5 -42.5t-64 -92.5t-20.5 -113zM395 169h85q-23 -86 -85.5 -133.5t-153.5 -47.5l-22 -104h-39l23 107q-84 11 -128 68.5t-44 151.5q0 128 80 223t206 95l19 91h39l-20 -93q74 -9 115 -53t41 -121h-85q0 44 -23 71t-63 33
l-84 -399q102 8 139 111z" />
    <glyph glyph-name="sterling" unicode="&#xa3;" 
d="M26 -12l-29 75q64 50 94.5 90.5t30.5 93.5q0 43 -10 80h-86l10 45h62q-23 86 -23 127q0 98 72.5 165t169.5 67q109 0 166.5 -69.5t52.5 -176.5h-90q6 67 -26.5 119t-95.5 52q-69 0 -114 -47.5t-45 -119.5q0 -56 23 -117h154l-10 -45h-130q10 -27 10 -68q0 -46 -41 -101.5
t-93 -86.5v-2q56 27 112 27q30 0 84 -16q4 -1 19 -6.5l22 -8t20 -5t24 -2.5q8 0 17.5 2.5t15.5 5t17 9t14.5 9l16 11t13.5 9.5l32 -72q-28 -20 -66.5 -34.5t-69.5 -14.5q-38 0 -104 24q-68 24 -101 24q-42 0 -118 -43z" />
    <glyph glyph-name="currency" unicode="&#xa4;" 
d="M25 555l49 49l56 -56q61 51 151 51q85 0 143 -50l57 56l50 -51l-55 -55q52 -57 52 -148q0 -87 -52 -150l55 -56l-47 -47l-56 58q-58 -55 -148 -55q-92 0 -152 54l-55 -58l-48 48l55 58q-52 63 -52 146q0 94 54 148zM281 524q-71 0 -119.5 -50.5t-48.5 -124.5
q0 -73 48.5 -123t118.5 -50q69 0 116 51t47 124q0 71 -47 122t-115 51z" />
    <glyph glyph-name="yen" unicode="&#xa5;" 
d="M170 0l36 174h-145l14 60h144l8 52l-8 23h-130l14 60h97l-110 345h98l101 -344l239 344h108l-249 -345h96l-13 -60h-129l-24 -33l-9 -42h147l-14 -60h-146l-36 -174h-89z" />
    <glyph glyph-name="brokenbar" unicode="&#xa6;" horiz-adv-x="222" 
d="M77 -89v250h68v-250h-68zM145 661v-250h-68v250h68z" />
    <glyph glyph-name="section" unicode="&#xa7;" 
d="M126 351q0 -46 59 -107l70 -75q8 -8 59 -65q97 21 97 100q0 25 -25 60.5t-56 64.5l-65 63t-47 53q-10 0 -32 -11.5t-30 -19.5q-30 -25 -30 -63zM520 555h-80q1 47 -23.5 74t-73.5 27q-39 0 -67 -21.5t-28 -55.5q0 -44 47 -93q13 -14 40.5 -41.5l44 -44.5t38.5 -42t38 -47
q35 -48 35 -96q0 -66 -39 -110t-104 -52q13 -14 21 -40.5t8 -48.5q0 -80 -55.5 -120t-138.5 -42q-82 1 -129 54t-47 135h80q0 -53 28 -83.5t82 -30.5q40 0 67.5 22t27.5 58q0 48 -49 101l-134 145q-63 71 -63 136q0 127 139 157q-22 32 -22 79q-1 73 52.5 114.5t129.5 41.5
q81 0 130.5 -47.5t44.5 -128.5z" />
    <glyph glyph-name="dieresis" unicode="&#xa8;" horiz-adv-x="222" 
d="M220 592l21 104h89l-21 -104h-89zM57 592l21 104h89l-21 -104h-89z" />
    <glyph glyph-name="copyright" unicode="&#xa9;" horiz-adv-x="800" 
d="M24 359q0 157 111 264.5t266 107.5t265 -107.5t110 -264.5q0 -159 -110 -267.5t-265 -108.5q-156 0 -266.5 108.5t-110.5 267.5zM92 359q0 -137 89 -229t220 -92q130 0 218.5 92t88.5 229q0 134 -88.5 225.5t-218.5 91.5q-131 0 -220 -91.5t-89 -225.5zM535 285h64
q-16 -72 -66.5 -114.5t-119.5 -42.5q-100 0 -161 64.5t-61 164.5q0 102 59 165t160 63q74 0 125.5 -39.5t62.5 -112.5h-63q-8 43 -41.5 70t-82.5 27q-72 0 -112 -48t-40 -123q0 -73 42.5 -124.5t111.5 -51.5q49 0 82 28.5t40 73.5z" />
    <glyph glyph-name="ordfeminine" unicode="&#xaa;" horiz-adv-x="311" 
d="M135 606h-60q6 50 47.5 76.5t99.5 26.5q45 0 86 -18.5t41 -54.5q0 -6 -1.5 -15.5t-4.5 -21t-4 -16.5l-20 -83q-13 -55 -13 -58q0 -12 17 -12q7 0 15 3l-8 -46q-16 -7 -34 -7q-23 0 -34.5 12.5t-9.5 33.5h-3q-35 -46 -97 -46q-119 0 -119 93q0 47 38.5 69t91.5 26
q31 2 48.5 4.5t38 8t30 16.5t9.5 27q0 35 -67 35q-76 0 -87 -53zM262 499l12 45h-2q-7 -6 -20 -10t-24.5 -5t-31.5 -3l-30 -3q-35 -4 -54 -16t-19 -40q0 -18 17 -27.5t42 -9.5q53 3 77 19t33 50z" />
    <glyph glyph-name="guillemotleft" unicode="&#xab;" horiz-adv-x="463" 
d="M153 114l-123 136l22 92l174 100l-21 -85l-120 -68l87 -90zM349 114l-123 136l22 92l174 100l-21 -85l-120 -68l87 -90z" />
    <glyph glyph-name="logicalnot" unicode="&#xac;" horiz-adv-x="600" 
d="M552 388v-279h-68v211h-436v68h504z" />
    <glyph glyph-name="uni00AD" unicode="&#xad;" horiz-adv-x="389" 
d="M26 238l16 80h290l-16 -80h-290z" />
    <glyph glyph-name="registered" unicode="&#xae;" horiz-adv-x="800" 
d="M24 359q0 157 111 264.5t266 107.5t265 -107.5t110 -264.5q0 -159 -110 -267.5t-265 -108.5q-156 0 -266.5 108.5t-110.5 267.5zM92 359q0 -137 89 -229t220 -92q130 0 218.5 92t88.5 229q0 134 -88.5 225.5t-218.5 91.5q-131 0 -220 -91.5t-89 -225.5zM255 139v437h169
q153 0 153 -125q0 -107 -115 -119l125 -193h-73l-119 188h-72v-188h-68zM323 521v-139h71q22 0 35.5 1t30.5 4.5t26.5 11t16 21.5t6.5 34q0 67 -96 67h-90z" />
    <glyph glyph-name="macron" unicode="&#xaf;" horiz-adv-x="222" 
d="M53 620l12 55h269l-11 -55h-270z" />
    <glyph glyph-name="degree" unicode="&#xb0;" horiz-adv-x="400" 
d="M77 561q0 61 43.5 104.5t104.5 43.5t104.5 -43.5t43.5 -104.5t-43.5 -104.5t-104.5 -43.5t-104.5 43.5t-43.5 104.5zM127 561q0 -41 28.5 -69.5t69.5 -28.5t69.5 28.5t28.5 69.5t-28.5 69.5t-69.5 28.5t-69.5 -28.5t-28.5 -69.5z" />
    <glyph glyph-name="plusminus" unicode="&#xb1;" horiz-adv-x="600" 
d="M48 271v68h218v166h68v-166h218v-68h-218v-167h-68v167h-218zM48 0v68h504v-68h-504z" />
    <glyph glyph-name="twosuperior" unicode="&#xb2;" horiz-adv-x="333" 
d="M123 561h-68q7 68 51 108t120 40q58 0 96 -31.5t38 -83.5q0 -83 -107 -142l-63 -36l-46.5 -27t-35 -25.5t-21.5 -28.5h231l-10 -55h-296q0 57 28 92t96 78l64 40q4 2 20 12l22 14t18 14t17.5 18t10 19.5t4.5 23.5q0 30 -19 46.5t-53 16.5q-44 -2 -69.5 -27t-27.5 -66z
" />
    <glyph glyph-name="threesuperior" unicode="&#xb3;" horiz-adv-x="333" 
d="M160 477l9 50q124 -9 124 73q0 54 -74 54q-39 0 -63 -21.5t-26 -56.5h-68q3 59 46.5 96t113.5 37q60 0 99.5 -28t39.5 -80q0 -35 -24.5 -62t-63.5 -36v-2q65 -22 65 -89q0 -54 -46.5 -96.5t-125.5 -42.5q-77 0 -114.5 36.5t-34.5 103.5h68q-2 -41 15 -63t68 -22
q46 0 74 22t28 63q0 23 -9.5 37.5t-25 20t-35.5 7t-40 -0.5z" />
    <glyph glyph-name="acute" unicode="&#xb4;" horiz-adv-x="222" 
d="M137 588l93 143h113l-136 -143h-70z" />
    <glyph glyph-name="mu" unicode="&#xb5;" 
d="M520 517l-109 -517h-82l16 78h-2q-31 -42 -78.5 -66t-93.5 -24q-32 0 -57.5 12t-35.5 26h-2l-47 -224h-85l149 715h85l-66 -302q-12 -57 -12 -80q0 -35 25 -53.5t65 -18.5q68 0 119.5 50t65.5 118l60 286h85z" />
    <glyph glyph-name="paragraph" unicode="&#xb6;" horiz-adv-x="600" 
d="M142 -155l102 491q-91 0 -139.5 53.5t-31.5 132.5q20 95 89.5 143.5t177.5 48.5h238l-181 -869h-64l169 814h-126l-169 -814h-65z" />
    <glyph glyph-name="periodcentered" unicode="&#xb7;" horiz-adv-x="278" 
d="M67 253q0 27 19.5 45.5t44.5 18.5q27 0 45.5 -18.5t18.5 -45.5q0 -28 -18.5 -46t-45.5 -18q-26 0 -45 19t-19 45z" />
    <glyph glyph-name="cedilla" unicode="&#xb8;" horiz-adv-x="222" 
d="M-41 -188l18 43q45 -15 64 -15q60 0 60 30q0 31 -46 31q-25 0 -42 -8l-19 30l74 90h47l-58 -66h2q14 4 26 4q38 0 64.5 -18.5t26.5 -55.5q0 -42 -36.5 -64.5t-82.5 -22.5q-49 0 -98 22z" />
    <glyph glyph-name="onesuperior" unicode="&#xb9;" horiz-adv-x="333" 
d="M304 709l-90 -429h-66l66 325q-51 -17 -117 -17l9 50q51 0 92.5 20.5t58.5 50.5h47z" />
    <glyph glyph-name="ordmasculine" unicode="&#xba;" horiz-adv-x="344" 
d="M104 513q0 -37 22 -60t63 -23q55 0 90.5 44.5t35.5 100.5q0 37 -21.5 60.5t-63.5 23.5q-58 0 -92 -45.5t-34 -100.5zM44 512q0 80 52.5 138.5t137.5 58.5q68 0 104.5 -34t36.5 -96q0 -80 -51.5 -139.5t-134.5 -59.5q-67 0 -106.5 33.5t-38.5 98.5z" />
    <glyph glyph-name="guillemotright" unicode="&#xbb;" horiz-adv-x="463" 
d="M100 442l123 -136l-22 -92l-174 -100l21 85l120 68l-87 90zM296 442l123 -136l-22 -92l-174 -100l21 85l120 68l-87 90z" />
    <glyph glyph-name="onequarter" unicode="&#xbc;" horiz-adv-x="834" 
d="M589 0l22 96h-199l11 58l269 275h58l-64 -278h61l-13 -55h-60l-22 -96h-63zM482 151h139l41 181h-2zM286 709l-90 -429h-66l66 325q-51 -17 -117 -17l9 50q51 0 92.5 20.5t58.5 50.5h47zM124 -28l435 753h64l-435 -753h-64z" />
    <glyph glyph-name="onehalf" unicode="&#xbd;" horiz-adv-x="834" 
d="M286 709l-90 -429h-66l66 325q-51 -17 -117 -17l9 50q51 0 92.5 20.5t58.5 50.5h47zM542 281h-68q7 68 51 108t120 40q58 0 96 -31.5t38 -83.5q0 -83 -107 -142l-63 -36l-46.5 -27t-35 -25.5t-21.5 -28.5h231l-10 -55h-296q0 57 28 92t96 78l64 40q4 2 20 12l22 14t18 14
t17.5 18t10 19.5t4.5 23.5q0 30 -19 46.5t-53 16.5q-44 0 -69.5 -25.5t-27.5 -67.5zM124 -28l435 753h64l-435 -753h-64z" />
    <glyph glyph-name="threequarters" unicode="&#xbe;" horiz-adv-x="834" 
d="M627 0l22 96h-199l11 58l269 275h58l-64 -278h61l-13 -55h-60l-22 -96h-63zM659 151l41 181h-2l-178 -181h139zM160 477l9 50q124 -9 124 73q0 54 -74 54q-39 0 -63 -21.5t-26 -56.5h-68q3 59 46.5 96t113.5 37q60 0 99.5 -28t39.5 -80q0 -35 -24.5 -62t-63.5 -36v-2
q65 -22 65 -89q0 -54 -46.5 -96.5t-125.5 -42.5q-77 0 -114.5 36.5t-34.5 103.5h68q-2 -41 15 -63t68 -22q46 0 74 22t28 63q0 23 -9.5 37.5t-25 20t-35.5 7t-40 -0.5zM199 -28l435 753h64l-435 -753h-64z" />
    <glyph glyph-name="questiondown" unicode="&#xbf;" 
d="M346 25h85q-11 -109 -78 -172t-175 -63q-82 0 -139.5 48t-57.5 130q0 100 110 183q5 4 28 20t29.5 21.5l24.5 20.5t25 25l17.5 26t15 32.5t5.5 35.5h83q-12 -83 -46.5 -126t-114.5 -99q-87 -63 -87 -132q0 -48 31.5 -79t78.5 -31q136 0 165 160zM373 517l-25 -111h-110
l22 111h113z" />
    <glyph glyph-name="Agrave" unicode="&#xc0;" horiz-adv-x="667" 
d="M410 630l-191 -335h246l-53 335h-2zM-55 0l430 714h104l129 -714h-98l-33 215h-301l-125 -215h-106zM420 898l67 -143h-67l-101 143h101z" />
    <glyph glyph-name="Aacute" unicode="&#xc1;" horiz-adv-x="667" 
d="M410 630l-191 -335h246l-53 335h-2zM-55 0l430 714h104l129 -714h-98l-33 215h-301l-125 -215h-106zM380 755l93 143h113l-136 -143h-70z" />
    <glyph glyph-name="Acircumflex" unicode="&#xc2;" horiz-adv-x="667" 
d="M410 630l-191 -335h246l-53 335h-2zM-55 0l430 714h104l129 -714h-98l-33 215h-301l-125 -215h-106zM273 755l133 143h86l75 -143h-74l-51 93l-87 -93h-82z" />
    <glyph glyph-name="Atilde" unicode="&#xc3;" horiz-adv-x="667" 
d="M410 630l-191 -335h246l-53 335h-2zM-55 0l430 714h104l129 -714h-98l-33 215h-301l-125 -215h-106zM318 764h-52q35 109 99 109q25 0 77 -25q6 -2 22 -9.5t25 -10t17 -1.5q14 0 24 6.5t14.5 13t12.5 21.5h51q-7 -23 -14 -39t-19 -33.5t-29.5 -27t-39.5 -9.5
q-26 0 -76 25q-42 21 -65 21q-32 0 -47 -41z" />
    <glyph glyph-name="Adieresis" unicode="&#xc4;" horiz-adv-x="667" 
d="M410 630l-191 -335h246l-53 335h-2zM-55 0l430 714h104l129 -714h-98l-33 215h-301l-125 -215h-106zM463 759l21 104h89l-21 -104h-89zM300 759l21 104h89l-21 -104h-89z" />
    <glyph glyph-name="Aring" unicode="&#xc5;" horiz-adv-x="667" 
d="M410 630l-191 -335h246l-53 335h-2zM-55 0l430 714h104l129 -714h-98l-33 215h-301l-125 -215h-106zM374 844q0 -28 20 -48t48 -20t48 20t20 48t-20 48t-48 20t-48 -20t-20 -48zM329 844q0 46 33.5 79.5t79.5 33.5t79.5 -33.5t33.5 -79.5t-33.5 -79.5t-79.5 -33.5
t-79.5 33.5t-33.5 79.5z" />
    <glyph glyph-name="AE" unicode="&#xc6;" horiz-adv-x="926" 
d="M480 634l-245 -346h192l75 346h-22zM-79 0l520 714h524l-17 -80h-351l-47 -227h330l-18 -80h-329l-53 -247h357l-16 -80h-455l43 208h-230l-149 -208h-109z" />
    <glyph glyph-name="Ccedilla" unicode="&#xc7;" horiz-adv-x="722" 
d="M702 484h-95q0 82 -48 124.5t-129 42.5q-95 0 -164.5 -54t-101 -132.5t-31.5 -168.5q0 -107 53.5 -170t157.5 -63q171 0 221 178h95q-28 -123 -107.5 -190.5t-208.5 -67.5h-5l-32 -36h2q14 4 26 4q38 0 64.5 -18.5t26.5 -55.5q0 -42 -36.5 -64.5t-82.5 -22.5
q-49 0 -98 22l18 43q45 -15 64 -15q60 0 60 30q0 31 -46 31q-25 0 -42 -8l-19 30l53 64q-124 12 -191.5 93t-67.5 216q0 117 46 215t137 159t209 61q121 0 196.5 -64t75.5 -183z" />
    <glyph glyph-name="Egrave" unicode="&#xc8;" horiz-adv-x="611" 
d="M7 0l151 714h492l-16 -80h-397l-48 -227h370l-16 -80h-371l-52 -247h402l-18 -80h-497zM402 898l67 -143h-67l-101 143h101z" />
    <glyph glyph-name="Eacute" unicode="&#xc9;" horiz-adv-x="611" 
d="M7 0l151 714h492l-16 -80h-397l-48 -227h370l-16 -80h-371l-52 -247h402l-18 -80h-497zM362 755l93 143h113l-136 -143h-70z" />
    <glyph glyph-name="Ecircumflex" unicode="&#xca;" horiz-adv-x="611" 
d="M7 0l151 714h492l-16 -80h-397l-48 -227h370l-16 -80h-371l-52 -247h402l-18 -80h-497zM255 755l133 143h86l75 -143h-74l-51 93l-87 -93h-82z" />
    <glyph glyph-name="Edieresis" unicode="&#xcb;" horiz-adv-x="611" 
d="M7 0l151 714h492l-16 -80h-397l-48 -227h370l-16 -80h-371l-52 -247h402l-18 -80h-497zM445 759l21 104h89l-21 -104h-89zM282 759l21 104h89l-21 -104h-89z" />
    <glyph glyph-name="Igrave" unicode="&#xcc;" horiz-adv-x="259" 
d="M7 0l150 714h95l-150 -714h-95zM206 898l67 -143h-67l-101 143h101z" />
    <glyph glyph-name="Iacute" unicode="&#xcd;" horiz-adv-x="259" 
d="M7 0l150 714h95l-150 -714h-95zM166 755l93 143h113l-136 -143h-70z" />
    <glyph glyph-name="Icircumflex" unicode="&#xce;" horiz-adv-x="259" 
d="M7 0l150 714h95l-150 -714h-95zM59 755l133 143h86l75 -143h-74l-51 93l-87 -93h-82z" />
    <glyph glyph-name="Idieresis" unicode="&#xcf;" horiz-adv-x="259" 
d="M7 0l150 714h95l-150 -714h-95zM249 759l21 104h89l-21 -104h-89zM86 759l21 104h89l-21 -104h-89z" />
    <glyph glyph-name="Eth" unicode="&#xd0;" horiz-adv-x="704" 
d="M7 0l72 339h-66l14 68h66l65 307h250q132 0 201 -72t69 -201q0 -201 -109.5 -321t-287.5 -120h-274zM234 634l-48 -227h200l-14 -68h-200l-55 -259h165q96 0 166.5 52.5t102.5 130.5t32 168q0 203 -197 203h-152z" />
    <glyph glyph-name="Ntilde" unicode="&#xd1;" horiz-adv-x="722" 
d="M7 0l151 714h102l255 -591h2l119 591h92l-151 -714h-102l-253 587h-2l-121 -587h-92zM345 764h-52q35 109 99 109q25 0 77 -25q6 -2 22 -9.5t25 -10t17 -1.5q14 0 24 6.5t14.5 13t12.5 21.5h51q-7 -23 -14 -39t-19 -33.5t-29.5 -27t-39.5 -9.5q-26 0 -76 25
q-42 21 -65 21q-32 0 -47 -41z" />
    <glyph glyph-name="Ograve" unicode="&#xd2;" horiz-adv-x="759" 
d="M38 296q0 117 46 215t137 159t209 61q136 0 217 -90t81 -226q0 -113 -45.5 -211t-134.5 -159.5t-204 -61.5q-146 0 -226 82.5t-80 230.5zM133 296q0 -107 53.5 -170t157.5 -63q68 0 124.5 31t91.5 81.5t54 112.5t19 127q0 103 -53.5 169.5t-149.5 66.5q-95 0 -164.5 -54
t-101 -132.5t-31.5 -168.5zM446 898l67 -143h-67l-101 143h101z" />
    <glyph glyph-name="Oacute" unicode="&#xd3;" horiz-adv-x="759" 
d="M38 296q0 117 46 215t137 159t209 61q136 0 217 -90t81 -226q0 -113 -45.5 -211t-134.5 -159.5t-204 -61.5q-146 0 -226 82.5t-80 230.5zM133 296q0 -107 53.5 -170t157.5 -63q68 0 124.5 31t91.5 81.5t54 112.5t19 127q0 103 -53.5 169.5t-149.5 66.5q-95 0 -164.5 -54
t-101 -132.5t-31.5 -168.5zM406 755l93 143h113l-136 -143h-70z" />
    <glyph glyph-name="Ocircumflex" unicode="&#xd4;" horiz-adv-x="759" 
d="M38 296q0 117 46 215t137 159t209 61q136 0 217 -90t81 -226q0 -113 -45.5 -211t-134.5 -159.5t-204 -61.5q-146 0 -226 82.5t-80 230.5zM133 296q0 -107 53.5 -170t157.5 -63q68 0 124.5 31t91.5 81.5t54 112.5t19 127q0 103 -53.5 169.5t-149.5 66.5q-95 0 -164.5 -54
t-101 -132.5t-31.5 -168.5zM299 755l133 143h86l75 -143h-74l-51 93l-87 -93h-82z" />
    <glyph glyph-name="Otilde" unicode="&#xd5;" horiz-adv-x="759" 
d="M38 296q0 117 46 215t137 159t209 61q136 0 217 -90t81 -226q0 -113 -45.5 -211t-134.5 -159.5t-204 -61.5q-146 0 -226 82.5t-80 230.5zM133 296q0 -107 53.5 -170t157.5 -63q68 0 124.5 31t91.5 81.5t54 112.5t19 127q0 103 -53.5 169.5t-149.5 66.5q-95 0 -164.5 -54
t-101 -132.5t-31.5 -168.5zM344 764h-52q35 109 99 109q25 0 77 -25q6 -2 22 -9.5t25 -10t17 -1.5q14 0 24 6.5t14.5 13t12.5 21.5h51q-7 -23 -14 -39t-19 -33.5t-29.5 -27t-39.5 -9.5q-26 0 -76 25q-42 21 -65 21q-32 0 -47 -41z" />
    <glyph glyph-name="Odieresis" unicode="&#xd6;" horiz-adv-x="759" 
d="M38 296q0 117 46 215t137 159t209 61q136 0 217 -90t81 -226q0 -113 -45.5 -211t-134.5 -159.5t-204 -61.5q-146 0 -226 82.5t-80 230.5zM133 296q0 -107 53.5 -170t157.5 -63q68 0 124.5 31t91.5 81.5t54 112.5t19 127q0 103 -53.5 169.5t-149.5 66.5q-95 0 -164.5 -54
t-101 -132.5t-31.5 -168.5zM489 759l21 104h89l-21 -104h-89zM326 759l21 104h89l-21 -104h-89z" />
    <glyph glyph-name="multiply" unicode="&#xd7;" horiz-adv-x="600" 
d="M119 24l-48 48l182 182l-181 180l48 48l181 -180l180 180l48 -48l-180 -180l181 -182l-48 -48l-181 182z" />
    <glyph glyph-name="Oslash" unicode="&#xd8;" horiz-adv-x="759" 
d="M-12 10l100 96q-50 77 -50 190q0 117 46 215t137 159t209 61q136 0 217 -91l98 93l29 -32l-100 -95q54 -82 54 -191q0 -113 -45.5 -211t-134.5 -159.5t-204 -61.5q-147 0 -229 88h-3l-95 -93zM158 173l425 406q-54 72 -153 72q-95 0 -164.5 -54t-101 -132.5t-31.5 -168.5
q0 -70 25 -123zM606 541l-425 -406q54 -72 163 -72q68 0 124.5 31t91.5 81.5t54 112.5t19 127q0 72 -27 126z" />
    <glyph glyph-name="Ugrave" unicode="&#xd9;" horiz-adv-x="722" 
d="M728 714l-89 -428q-24 -108 -36 -137q-34 -85 -108 -125.5t-170 -40.5q-156 0 -223 80.5t-36 230.5l89 420h95l-94 -444q-24 -102 20 -154.5t149 -52.5q57 0 95.5 15t62 47.5t36 68t24.5 92.5l90 428h95zM437 898l67 -143h-67l-101 143h101z" />
    <glyph glyph-name="Uacute" unicode="&#xda;" horiz-adv-x="722" 
d="M728 714l-89 -428q-24 -108 -36 -137q-34 -85 -108 -125.5t-170 -40.5q-156 0 -223 80.5t-36 230.5l89 420h95l-94 -444q-24 -102 20 -154.5t149 -52.5q57 0 95.5 15t62 47.5t36 68t24.5 92.5l90 428h95zM397 755l93 143h113l-136 -143h-70z" />
    <glyph glyph-name="Ucircumflex" unicode="&#xdb;" horiz-adv-x="722" 
d="M728 714l-89 -428q-24 -108 -36 -137q-34 -85 -108 -125.5t-170 -40.5q-156 0 -223 80.5t-36 230.5l89 420h95l-94 -444q-24 -102 20 -154.5t149 -52.5q57 0 95.5 15t62 47.5t36 68t24.5 92.5l90 428h95zM290 755l133 143h86l75 -143h-74l-51 93l-87 -93h-82z" />
    <glyph glyph-name="Udieresis" unicode="&#xdc;" horiz-adv-x="722" 
d="M728 714l-89 -428q-24 -108 -36 -137q-34 -85 -108 -125.5t-170 -40.5q-156 0 -223 80.5t-36 230.5l89 420h95l-94 -444q-24 -102 20 -154.5t149 -52.5q57 0 95.5 15t62 47.5t36 68t24.5 92.5l90 428h95zM480 759l21 104h89l-21 -104h-89zM317 759l21 104h89l-21 -104
h-89z" />
    <glyph glyph-name="Yacute" unicode="&#xdd;" horiz-adv-x="611" 
d="M193 0l61 287l-188 427h101l146 -346l271 346h110l-346 -427l-62 -287h-93zM332 755l93 143h113l-136 -143h-70z" />
    <glyph glyph-name="Thorn" unicode="&#xde;" horiz-adv-x="648" 
d="M7 0l149 714h95l-23 -114h184q103 0 157.5 -50t54.5 -147q0 -29 -8 -58t-28 -59.5t-50 -54t-78.5 -38.5t-108.5 -15h-212l-37 -178h-95zM211 520l-55 -262h215q75 0 116.5 40t41.5 105q0 62 -32.5 89.5t-84.5 27.5h-201z" />
    <glyph glyph-name="germandbls" unicode="&#xdf;" horiz-adv-x="537" 
d="M-5 0l107 504q21 109 73.5 168t151.5 59q81 0 134 -36.5t53 -113.5q0 -71 -42.5 -124t-106.5 -60v-2q54 -8 83.5 -49.5t29.5 -97.5q0 -107 -71.5 -183.5t-177.5 -76.5q-43 0 -73 5l14 72q10 -2 30 -2q83 0 138 47.5t55 130.5q0 37 -12.5 61.5t-36 36t-50 15.5t-62.5 3
l15 70q74 -5 128 30t54 107q0 43 -30.5 67.5t-67.5 24.5q-68 0 -99 -43t-46 -116l-105 -497h-86z" />
    <glyph glyph-name="agrave" unicode="&#xe0;" horiz-adv-x="519" 
d="M75 135q0 -34 27 -53t66 -19q101 0 145 68q10 14 17.5 32t11 30t9 37l7.5 34h-2q-11 -6 -24 -11t-34 -9t-31.5 -5.5t-40.5 -5t-36 -4.5q-54 -8 -84.5 -28.5t-30.5 -65.5zM138 361h-85q12 82 74 125t150 43q189 0 189 -132q0 -19 -16 -94l-33 -141q-1 -7 -5 -22t-6.5 -28
t-2.5 -24q0 -32 25 -32q8 0 27 7l-13 -63q-22 -12 -52 -12q-35 0 -53 19.5t-14 53.5l-2 2q-56 -75 -173 -75q-70 0 -114 35.5t-44 110.5q0 31 9.5 56t21.5 41.5t37 29.5t41.5 19.5t51 12t49.5 7t51 4.5q33 3 49 5t35 7.5t27 13.5t13.5 21.5t5.5 34.5q0 68 -104 68
q-54 0 -93 -23t-46 -70zM301 731l67 -143h-67l-101 143h101z" />
    <glyph glyph-name="aacute" unicode="&#xe1;" horiz-adv-x="519" 
d="M75 135q0 -34 27 -53t66 -19q101 0 145 68q10 14 17.5 32t11 30t9 37l7.5 34h-2q-11 -6 -24 -11t-34 -9t-31.5 -5.5t-40.5 -5t-36 -4.5q-54 -8 -84.5 -28.5t-30.5 -65.5zM138 361h-85q12 82 74 125t150 43q189 0 189 -132q0 -19 -16 -94l-33 -141q-1 -7 -5 -22t-6.5 -28
t-2.5 -24q0 -32 25 -32q8 0 27 7l-13 -63q-22 -12 -52 -12q-35 0 -53 19.5t-14 53.5l-2 2q-56 -75 -173 -75q-70 0 -114 35.5t-44 110.5q0 31 9.5 56t21.5 41.5t37 29.5t41.5 19.5t51 12t49.5 7t51 4.5q33 3 49 5t35 7.5t27 13.5t13.5 21.5t5.5 34.5q0 68 -104 68
q-54 0 -93 -23t-46 -70zM261 588l93 143h113l-136 -143h-70z" />
    <glyph glyph-name="acircumflex" unicode="&#xe2;" horiz-adv-x="519" 
d="M75 135q0 -34 27 -53t66 -19q101 0 145 68q10 14 17.5 32t11 30t9 37l7.5 34h-2q-11 -6 -24 -11t-34 -9t-31.5 -5.5t-40.5 -5t-36 -4.5q-54 -8 -84.5 -28.5t-30.5 -65.5zM138 361h-85q12 82 74 125t150 43q189 0 189 -132q0 -19 -16 -94l-33 -141q-1 -7 -5 -22t-6.5 -28
t-2.5 -24q0 -32 25 -32q8 0 27 7l-13 -63q-22 -12 -52 -12q-35 0 -53 19.5t-14 53.5l-2 2q-56 -75 -173 -75q-70 0 -114 35.5t-44 110.5q0 31 9.5 56t21.5 41.5t37 29.5t41.5 19.5t51 12t49.5 7t51 4.5q33 3 49 5t35 7.5t27 13.5t13.5 21.5t5.5 34.5q0 68 -104 68
q-54 0 -93 -23t-46 -70zM154 588l133 143h86l75 -143h-74l-51 93l-87 -93h-82z" />
    <glyph glyph-name="atilde" unicode="&#xe3;" horiz-adv-x="519" 
d="M75 135q0 -34 27 -53t66 -19q101 0 145 68q10 14 17.5 32t11 30t9 37l7.5 34h-2q-11 -6 -24 -11t-34 -9t-31.5 -5.5t-40.5 -5t-36 -4.5q-54 -8 -84.5 -28.5t-30.5 -65.5zM138 361h-85q12 82 74 125t150 43q189 0 189 -132q0 -19 -16 -94l-33 -141q-1 -7 -5 -22t-6.5 -28
t-2.5 -24q0 -32 25 -32q8 0 27 7l-13 -63q-22 -12 -52 -12q-35 0 -53 19.5t-14 53.5l-2 2q-56 -75 -173 -75q-70 0 -114 35.5t-44 110.5q0 31 9.5 56t21.5 41.5t37 29.5t41.5 19.5t51 12t49.5 7t51 4.5q33 3 49 5t35 7.5t27 13.5t13.5 21.5t5.5 34.5q0 68 -104 68
q-54 0 -93 -23t-46 -70zM199 597h-52q35 109 99 109q25 0 77 -25q6 -2 22 -9.5t25 -10t17 -1.5q14 0 24 6.5t14.5 13t12.5 21.5h51q-7 -23 -14 -39t-19 -33.5t-29.5 -27t-39.5 -9.5q-26 0 -76 25q-42 21 -65 21q-32 0 -47 -41z" />
    <glyph glyph-name="adieresis" unicode="&#xe4;" horiz-adv-x="519" 
d="M75 135q0 -34 27 -53t66 -19q101 0 145 68q10 14 17.5 32t11 30t9 37l7.5 34h-2q-11 -6 -24 -11t-34 -9t-31.5 -5.5t-40.5 -5t-36 -4.5q-54 -8 -84.5 -28.5t-30.5 -65.5zM138 361h-85q12 82 74 125t150 43q189 0 189 -132q0 -19 -16 -94l-33 -141q-1 -7 -5 -22t-6.5 -28
t-2.5 -24q0 -32 25 -32q8 0 27 7l-13 -63q-22 -12 -52 -12q-35 0 -53 19.5t-14 53.5l-2 2q-56 -75 -173 -75q-70 0 -114 35.5t-44 110.5q0 31 9.5 56t21.5 41.5t37 29.5t41.5 19.5t51 12t49.5 7t51 4.5q33 3 49 5t35 7.5t27 13.5t13.5 21.5t5.5 34.5q0 68 -104 68
q-54 0 -93 -23t-46 -70zM344 592l21 104h89l-21 -104h-89zM181 592l21 104h89l-21 -104h-89z" />
    <glyph glyph-name="aring" unicode="&#xe5;" horiz-adv-x="519" 
d="M138 361h-85q12 82 74 125t150 43q189 0 189 -132q0 -19 -16 -94l-33 -141q-1 -7 -5 -22t-6.5 -28t-2.5 -24q0 -32 25 -32q8 0 27 7l-13 -63q-22 -12 -52 -12q-35 0 -53 19.5t-14 53.5l-2 2q-56 -75 -173 -75q-70 0 -114 35.5t-44 110.5q0 31 9.5 56t21.5 41.5t37 29.5
t41.5 19.5t51 12t49.5 7t51 4.5q33 3 49 5t35 7.5t27 13.5t13.5 21.5t5.5 34.5q0 68 -104 68q-54 0 -93 -23t-46 -70zM245 662q0 -28 19.5 -48t48.5 -20t48.5 20t19.5 48t-19.5 48t-48.5 20t-48.5 -20t-19.5 -48zM75 135q0 -34 27 -53t66 -19q101 0 145 68q10 14 17.5 32
t11 30t9 37l7.5 34h-2q-11 -6 -24 -11t-34 -9t-31.5 -5.5t-40.5 -5t-36 -4.5q-54 -8 -84.5 -28.5t-30.5 -65.5zM200 662q0 46 33 79.5t80 33.5t80 -33.5t33 -79.5t-33 -79.5t-80 -33.5t-80 33.5t-33 79.5z" />
    <glyph glyph-name="ae" unicode="&#xe6;" horiz-adv-x="870" 
d="M449 308h290q9 61 -21 103.5t-97 42.5q-66 0 -111.5 -42t-60.5 -104zM147 362h-83q14 87 76.5 127t154.5 40q126 0 165 -81q27 38 72 59.5t93 21.5q97 0 148 -52.5t51 -150.5q0 -39 -14 -93h-375q-5 -40 -5 -52q0 -50 31.5 -84t92.5 -34q111 0 153 99h87q-12 -34 -28 -58
q-77 -116 -219 -116q-144 0 -182 112q-67 -112 -203 -112q-73 0 -120 33t-47 111q0 136 197 158q12 1 41 4t41.5 5t35 6.5t33 10.5t23 15t17.5 22.5t5 31.5q0 69 -113 69q-49 0 -83.5 -24t-44.5 -68zM80 132q0 -35 27.5 -52t68.5 -17q80 0 125 45q40 40 61 158
q-22 -11 -52 -17.5t-69 -11.5t-58 -9q-50 -9 -76.5 -30.5t-26.5 -65.5z" />
    <glyph glyph-name="ccedilla" unicode="&#xe7;" horiz-adv-x="537" 
d="M501 353h-85q0 47 -29.5 74t-79.5 27q-92 0 -146.5 -75t-54.5 -168q0 -66 30.5 -107t97.5 -41q53 0 93 28.5t58 77.5h85q-21 -82 -78 -128.5t-140 -51.5l-37 -42h2q14 4 26 4q38 0 64.5 -18.5t26.5 -55.5q0 -42 -36.5 -64.5t-82.5 -22.5q-49 0 -98 22l18 43
q45 -15 64 -15q60 0 60 30q0 31 -46 31q-25 0 -42 -8l-19 30l55 67q-92 7 -139 65t-47 156q0 131 77 224.5t209 93.5q90 0 140.5 -44t53.5 -132z" />
    <glyph glyph-name="egrave" unicode="&#xe8;" horiz-adv-x="537" 
d="M110 308h300q5 61 -25 103.5t-96 42.5q-133 0 -179 -146zM487 233h-389q-3 -23 -3 -45q0 -57 39.5 -91t94.5 -34q112 0 149 99h85q-20 -83 -83.5 -128.5t-150.5 -45.5q-61 0 -106 19.5t-68.5 51.5t-34 66t-10.5 71q0 145 78.5 239t187.5 94q219 0 219 -229q0 -30 -8 -67z
M310 731l67 -143h-67l-101 143h101z" />
    <glyph glyph-name="eacute" unicode="&#xe9;" horiz-adv-x="537" 
d="M110 308h300q5 61 -25 103.5t-96 42.5q-133 0 -179 -146zM487 233h-389q-3 -23 -3 -45q0 -57 39.5 -91t94.5 -34q112 0 149 99h85q-20 -83 -83.5 -128.5t-150.5 -45.5q-61 0 -106 19.5t-68.5 51.5t-34 66t-10.5 71q0 145 78.5 239t187.5 94q219 0 219 -229q0 -30 -8 -67z
M270 588l93 143h113l-136 -143h-70z" />
    <glyph glyph-name="ecircumflex" unicode="&#xea;" horiz-adv-x="537" 
d="M110 308h300q5 61 -25 103.5t-96 42.5q-133 0 -179 -146zM487 233h-389q-3 -23 -3 -45q0 -57 39.5 -91t94.5 -34q112 0 149 99h85q-20 -83 -83.5 -128.5t-150.5 -45.5q-61 0 -106 19.5t-68.5 51.5t-34 66t-10.5 71q0 145 78.5 239t187.5 94q219 0 219 -229q0 -30 -8 -67z
M163 588l133 143h86l75 -143h-74l-51 93l-87 -93h-82z" />
    <glyph glyph-name="edieresis" unicode="&#xeb;" horiz-adv-x="537" 
d="M110 308h300q5 61 -25 103.5t-96 42.5q-133 0 -179 -146zM487 233h-389q-3 -23 -3 -45q0 -57 39.5 -91t94.5 -34q112 0 149 99h85q-20 -83 -83.5 -128.5t-150.5 -45.5q-61 0 -106 19.5t-68.5 51.5t-34 66t-10.5 71q0 145 78.5 239t187.5 94q219 0 219 -229q0 -30 -8 -67z
M353 592l21 104h89l-21 -104h-89zM190 592l21 104h89l-21 -104h-89z" />
    <glyph glyph-name="igrave" unicode="&#xec;" horiz-adv-x="222" 
d="M80 0h-85l108 517h85zM177 731l67 -143h-67l-101 143h101z" />
    <glyph glyph-name="iacute" unicode="&#xed;" horiz-adv-x="222" 
d="M80 0h-85l108 517h85zM137 588l93 143h113l-136 -143h-70z" />
    <glyph glyph-name="icircumflex" unicode="&#xee;" horiz-adv-x="222" 
d="M80 0h-85l108 517h85zM20 588l133 143h86l75 -143h-74l-51 93l-87 -93h-82z" />
    <glyph glyph-name="idieresis" unicode="&#xef;" horiz-adv-x="222" 
d="M80 0h-85l108 517h85zM210 592l21 104h89l-21 -104h-89zM47 592l21 104h89l-21 -104h-89z" />
    <glyph glyph-name="eth" unicode="&#xf0;" horiz-adv-x="574" 
d="M300 431q-90 0 -144 -74t-54 -157q0 -62 37 -99.5t105 -37.5q86 0 140.5 77t54.5 159q0 59 -36 95.5t-103 36.5zM464 734l44 -38l-108 -55q65 -63 96.5 -129t32.5 -170q0 -100 -32 -178.5t-100 -127t-162 -48.5q-100 0 -159 59.5t-59 151.5q0 126 79 216.5t210 90.5
q80 0 129 -53h2q-13 43 -47 88t-62 64l-114 -57l-42 40l113 56q-19 16 -59 42l64 45q39 -24 69 -50z" />
    <glyph glyph-name="ntilde" unicode="&#xf1;" 
d="M-5 0l109 517h82l-16 -78h2q32 43 81 66.5t103 23.5q144 0 144 -133q0 -34 -15 -101l-63 -295h-85l66 302q12 57 12 80q0 35 -25 53.5t-65 18.5q-72 0 -128 -60q-37 -32 -57 -108l-60 -286h-85zM242 597h-52q35 109 99 109q25 0 77 -25q6 -2 22 -9.5t25 -10t17 -1.5
q14 0 24 6.5t14.5 13t12.5 21.5h51q-7 -23 -14 -39t-19 -33.5t-29.5 -27t-39.5 -9.5q-26 0 -76 25q-42 21 -65 21q-32 0 -47 -41z" />
    <glyph glyph-name="ograve" unicode="&#xf2;" horiz-adv-x="574" 
d="M102 205q0 -65 37 -103.5t105 -38.5q58 0 103.5 40.5t67 95.5t21.5 109q0 64 -34.5 105t-101.5 41q-90 0 -144 -79t-54 -170zM17 204q0 133 79 229t210 96q104 0 159.5 -55.5t55.5 -158.5q0 -134 -78 -230.5t-208 -96.5q-100 0 -159 60t-59 156zM328 731l67 -143h-67
l-101 143h101z" />
    <glyph glyph-name="oacute" unicode="&#xf3;" horiz-adv-x="574" 
d="M102 205q0 -65 37 -103.5t105 -38.5q58 0 103.5 40.5t67 95.5t21.5 109q0 64 -34.5 105t-101.5 41q-90 0 -144 -79t-54 -170zM17 204q0 133 79 229t210 96q104 0 159.5 -55.5t55.5 -158.5q0 -134 -78 -230.5t-208 -96.5q-100 0 -159 60t-59 156zM288 588l93 143h113
l-136 -143h-70z" />
    <glyph glyph-name="ocircumflex" unicode="&#xf4;" horiz-adv-x="574" 
d="M102 205q0 -65 37 -103.5t105 -38.5q58 0 103.5 40.5t67 95.5t21.5 109q0 64 -34.5 105t-101.5 41q-90 0 -144 -79t-54 -170zM17 204q0 133 79 229t210 96q104 0 159.5 -55.5t55.5 -158.5q0 -134 -78 -230.5t-208 -96.5q-100 0 -159 60t-59 156zM181 588l133 143h86
l75 -143h-74l-51 93l-87 -93h-82z" />
    <glyph glyph-name="otilde" unicode="&#xf5;" horiz-adv-x="574" 
d="M102 205q0 -65 37 -103.5t105 -38.5q58 0 103.5 40.5t67 95.5t21.5 109q0 64 -34.5 105t-101.5 41q-90 0 -144 -79t-54 -170zM17 204q0 133 79 229t210 96q104 0 159.5 -55.5t55.5 -158.5q0 -134 -78 -230.5t-208 -96.5q-100 0 -159 60t-59 156zM226 597h-52
q35 109 99 109q25 0 77 -25q6 -2 22 -9.5t25 -10t17 -1.5q14 0 24 6.5t14.5 13t12.5 21.5h51q-7 -23 -14 -39t-19 -33.5t-29.5 -27t-39.5 -9.5q-26 0 -76 25q-42 21 -65 21q-32 0 -47 -41z" />
    <glyph glyph-name="odieresis" unicode="&#xf6;" horiz-adv-x="574" 
d="M102 205q0 -65 37 -103.5t105 -38.5q58 0 103.5 40.5t67 95.5t21.5 109q0 64 -34.5 105t-101.5 41q-90 0 -144 -79t-54 -170zM17 204q0 133 79 229t210 96q104 0 159.5 -55.5t55.5 -158.5q0 -134 -78 -230.5t-208 -96.5q-100 0 -159 60t-59 156zM371 592l21 104h89
l-21 -104h-89zM208 592l21 104h89l-21 -104h-89z" />
    <glyph glyph-name="divide" unicode="&#xf7;" horiz-adv-x="600" 
d="M48 219v68h504v-68h-504zM236 459q0 26 19 45t45 19t45 -19.5t19 -44.5q0 -24 -19 -44t-44 -20q-26 0 -45.5 19t-19.5 45zM236 47q0 26 19 45t45 19t45 -19.5t19 -44.5q0 -24 -19 -44t-44 -20q-26 0 -45.5 19t-19.5 45z" />
    <glyph glyph-name="oslash" unicode="&#xf8;" horiz-adv-x="574" 
d="M425 374l-295 -266q38 -45 114 -45q58 0 103.5 40.5t67 95.5t21.5 109q0 38 -11 66zM113 142l295 267q-38 45 -108 45q-90 0 -144 -79t-54 -170q0 -37 10 -63h1zM-30 13l77 70q-30 49 -30 121q0 133 79 229t210 96q111 0 165 -63l70 63l25 -28l-73 -66q28 -48 28 -120
q0 -134 -78 -230.5t-208 -96.5q-110 0 -166 65l-75 -68z" />
    <glyph glyph-name="ugrave" unicode="&#xf9;" 
d="M520 517l-109 -517h-82l16 78h-2q-32 -43 -81 -66.5t-103 -23.5q-144 0 -144 133q0 34 15 101l63 295h85l-66 -302q-12 -57 -12 -80q0 -35 25 -53.5t65 -18.5q68 0 119.5 50t65.5 118l60 286h85zM300 731l67 -143h-67l-101 143h101z" />
    <glyph glyph-name="uacute" unicode="&#xfa;" 
d="M520 517l-109 -517h-82l16 78h-2q-32 -43 -81 -66.5t-103 -23.5q-144 0 -144 133q0 34 15 101l63 295h85l-66 -302q-12 -57 -12 -80q0 -35 25 -53.5t65 -18.5q68 0 119.5 50t65.5 118l60 286h85zM250 588l93 143h113l-136 -143h-70z" />
    <glyph glyph-name="ucircumflex" unicode="&#xfb;" 
d="M520 517l-109 -517h-82l16 78h-2q-32 -43 -81 -66.5t-103 -23.5q-144 0 -144 133q0 34 15 101l63 295h85l-66 -302q-12 -57 -12 -80q0 -35 25 -53.5t65 -18.5q68 0 119.5 50t65.5 118l60 286h85zM177 588l133 143h86l75 -143h-74l-51 93l-87 -93h-82z" />
    <glyph glyph-name="udieresis" unicode="&#xfc;" 
d="M520 517l-109 -517h-82l16 78h-2q-32 -43 -81 -66.5t-103 -23.5q-144 0 -144 133q0 34 15 101l63 295h85l-66 -302q-12 -57 -12 -80q0 -35 25 -53.5t65 -18.5q68 0 119.5 50t65.5 118l60 286h85zM333 592l21 104h89l-21 -104h-89zM170 592l21 104h89l-21 -104h-89z" />
    <glyph glyph-name="yacute" unicode="&#xfd;" horiz-adv-x="481" 
d="M505 517l-342 -605q-26 -41 -43.5 -63t-50 -40.5t-73.5 -18.5q-33 0 -59 13l15 69q23 -14 49 -14q46 0 80 56l52 86l-91 517h91l60 -411h2l217 411h93zM219 588l93 143h113l-136 -143h-70z" />
    <glyph glyph-name="thorn" unicode="&#xfe;" horiz-adv-x="593" 
d="M455 317q0 137 -133 137q-61 0 -109 -42.5t-70.5 -100t-22.5 -114.5q0 -60 34.5 -97t95.5 -37q94 0 149.5 79.5t55.5 174.5zM-49 -198l191 912h85l-63 -271h2q37 48 77 67t94 19q97 0 150 -57.5t53 -154.5q0 -81 -33 -155t-100.5 -124t-153.5 -50q-55 0 -101 22t-60 69
h-2l-55 -277h-84z" />
    <glyph glyph-name="ydieresis" unicode="&#xff;" horiz-adv-x="481" 
d="M505 517l-342 -605q-26 -41 -43.5 -63t-50 -40.5t-73.5 -18.5q-33 0 -59 13l15 69q23 -14 49 -14q46 0 80 56l52 86l-91 517h91l60 -411h2l217 411h93zM302 592l21 104h89l-21 -104h-89zM139 592l21 104h89l-21 -104h-89z" />
    <glyph glyph-name="dotlessi" unicode="&#x131;" horiz-adv-x="222" 
d="M80 0h-85l108 517h85z" />
    <glyph glyph-name="Lslash" unicode="&#x141;" 
d="M7 0l50 235l-78 -48l17 82l78 48l83 397h95l-69 -330l221 136l-17 -83l-221 -135l-46 -222h377l-17 -80h-473z" />
    <glyph glyph-name="lslash" unicode="&#x142;" horiz-adv-x="222" 
d="M145 714h85l-53 -232l2 -2l66 52l-10 -78l-74 -57l-81 -397h-85l68 322l-70 -54l10 77l74 57z" />
    <glyph glyph-name="OE" unicode="&#x152;" horiz-adv-x="1074" 
d="M538 257l56 277q9 41 -50 79t-117 38q-69 0 -125.5 -31.5t-91.5 -83.5t-54 -115t-19 -129q0 -95 50 -162t141 -67t150 58q19 18 31.5 42.5t17 41.5t11.5 52zM1106 714l-16 -80h-379l-48 -227h347l-16 -80h-347l-52 -247h384l-16 -80h-475l13 57h-2q-29 -36 -76.5 -55
t-99.5 -19q-135 0 -208 89t-73 228q0 108 44.5 205t132.5 161.5t199 64.5q64 0 120 -24t86 -73l16 80h466z" />
    <glyph glyph-name="oe" unicode="&#x153;" horiz-adv-x="907" 
d="M751 163h87q-29 -86 -93.5 -130.5t-156.5 -44.5q-138 0 -179 102q-27 -48 -77 -75t-107 -27q-100 0 -154 50.5t-54 152.5q0 84 33.5 160t101 127t153.5 51q139 0 174 -101q27 50 78.5 75.5t111.5 25.5q99 0 149.5 -54.5t50.5 -150.5q0 -49 -11 -91h-379q-7 -28 -7 -53
q0 -58 34.5 -87.5t96.5 -29.5q50 0 90 28t58 72zM102 195q0 -57 33 -94.5t95 -37.5q50 0 88.5 28t59 73t30 91t9.5 90q0 52 -33.5 80.5t-86.5 28.5q-60 0 -106 -43.5t-67.5 -101.5t-21.5 -114zM667 454q-69 0 -114 -40.5t-61 -105.5h290q2 20 2 29q0 49 -30.5 83t-86.5 34z
" />
    <glyph glyph-name="Scaron" unicode="&#x160;" horiz-adv-x="648" 
d="M614 503h-95q4 148 -164 148q-62 0 -113.5 -29.5t-51.5 -87.5q0 -48 30 -74t86 -41l96 -26q38 -10 65.5 -22.5t53.5 -34.5t39.5 -56t13.5 -80q0 -70 -43.5 -121t-105 -73.5t-129.5 -22.5q-136 0 -213 62.5t-68 188.5h95q-4 -92 46 -131.5t144 -39.5q74 0 126.5 35
t52.5 102q0 50 -32.5 75.5t-94.5 42.5l-97 26q-160 43 -160 180q0 97 78 152t182 55q73 0 131 -23t94 -76t34 -129zM576 898l-135 -143h-86l-77 143h76l51 -93l93 93h78z" />
    <glyph glyph-name="scaron" unicode="&#x161;" horiz-adv-x="481" 
d="M440 365h-85q3 42 -28.5 65.5t-78.5 23.5q-110 0 -110 -66q0 -10 3.5 -18.5t12 -16.5t16 -13.5t22.5 -12.5t24.5 -11t29 -11.5t28.5 -11.5q64 -26 100.5 -58t36.5 -87q0 -80 -63 -120t-148 -40q-97 0 -153.5 41t-55.5 134h85q-5 -100 132 -100q48 0 83 19t35 60
q0 10 -3.5 19t-12 17.5t-16 14t-23 13t-24 11l-29 12t-28.5 11.5q-64 25 -100.5 56t-36.5 84q0 68 57.5 108.5t134.5 40.5q81 0 138 -40t57 -124zM469 731l-135 -143h-86l-77 143h76l51 -93l93 93h78z" />
    <glyph glyph-name="Ydieresis" unicode="&#x178;" horiz-adv-x="611" 
d="M193 0l61 287l-188 427h101l146 -346l271 346h110l-346 -427l-62 -287h-93zM415 759l21 104h89l-21 -104h-89zM252 759l21 104h89l-21 -104h-89z" />
    <glyph glyph-name="Zcaron" unicode="&#x17d;" horiz-adv-x="611" 
d="M-38 0l17 79l536 555h-409l20 80h521l-17 -81l-540 -553h456l-17 -80h-567zM558 898l-135 -143h-86l-77 143h76l51 -93l93 93h78z" />
    <glyph glyph-name="zcaron" unicode="&#x17e;" horiz-adv-x="444" 
d="M-53 0l12 64l360 378h-278l15 75h393l-13 -61l-363 -381h309l-14 -75h-421zM450 731l-135 -143h-86l-77 143h76l51 -93l93 93h78z" />
    <glyph glyph-name="florin" unicode="&#x192;" 
d="M150 449h95l46 164q29 101 156 101q23 0 65 -8l-20 -73q-14 6 -40 6q-44 0 -61.5 -21t-34.5 -82l-24 -87h111l-18 -68h-111l-118 -415q-17 -66 -55 -98.5t-104 -32.5q-9 0 -56 5l21 74q25 -5 38 -4q58 7 77 84l110 387h-95z" />
    <glyph glyph-name="circumflex" unicode="&#x2c6;" horiz-adv-x="222" 
d="M30 588l133 143h86l75 -143h-74l-51 93l-87 -93h-82z" />
    <glyph glyph-name="caron" unicode="&#x2c7;" horiz-adv-x="222" 
d="M363 731l-135 -143h-86l-77 143h76l51 -93l93 93h78z" />
    <glyph glyph-name="uni02C9" unicode="&#x2c9;" horiz-adv-x="222" 
d="M53 620l12 55h269l-11 -55h-270z" />
    <glyph glyph-name="breve" unicode="&#x2d8;" horiz-adv-x="222" 
d="M54 731h45q1 -84 94 -84q49 0 76 19.5t41 64.5h45q-9 -66 -54 -102.5t-112 -36.5t-102 35.5t-33 103.5z" />
    <glyph glyph-name="dotaccent" unicode="&#x2d9;" horiz-adv-x="222" 
d="M137 592l21 104h89l-21 -104h-89z" />
    <glyph glyph-name="ring" unicode="&#x2da;" horiz-adv-x="222" 
d="M131 662q0 -28 19.5 -48t48.5 -20t48.5 20t19.5 48t-19.5 48t-48.5 20t-48.5 -20t-19.5 -48zM86 662q0 46 33 79.5t80 33.5t80 -33.5t33 -79.5t-33 -79.5t-80 -33.5t-80 33.5t-33 79.5z" />
    <glyph glyph-name="ogonek" unicode="&#x2db;" horiz-adv-x="222" 
d="M100 2h67q-126 -82 -126 -125q0 -37 37 -37q41 0 72 24l37 -12q-29 -34 -57.5 -48t-67.5 -14q-89 0 -89 71q0 60 127 141z" />
    <glyph glyph-name="tilde" unicode="&#x2dc;" horiz-adv-x="222" 
d="M75 597h-52q35 109 99 109q25 0 77 -25q6 -2 22 -9.5t25 -10t17 -1.5q14 0 24 6.5t14.5 13t12.5 21.5h51q-7 -23 -14 -39t-19 -33.5t-29.5 -27t-39.5 -9.5q-26 0 -76 25q-42 21 -65 21q-32 0 -47 -41z" />
    <glyph glyph-name="hungarumlaut" unicode="&#x2dd;" horiz-adv-x="222" 
d="M13 588l93 143h113l-136 -143h-70zM179 588l93 143h113l-136 -143h-70z" />
    <glyph glyph-name="uni03A9" unicode="&#x3a9;" horiz-adv-x="718" 
d="M132 66l1 3q-47 51 -68 130t-1 176q31 144 136 237.5t235 93.5q87 0 145.5 -47t77.5 -120.5t1 -159.5q-22 -100 -78.5 -181t-123.5 -129v-3h149l-14 -66h-243l10 49q72 41 131.5 122.5t83.5 192.5q11 68 3 129t-49.5 103t-108.5 42q-97 0 -174 -79t-102 -198
q-23 -105 2.5 -189.5t78.5 -122.5l-11 -49h-242l14 66h147z" />
    <glyph glyph-name="uni03BC" unicode="&#x3bc;" 
d="M520 517l-109 -517h-82l16 78h-2q-31 -42 -78.5 -66t-93.5 -24q-32 0 -57.5 12t-35.5 26h-2l-47 -224h-85l149 715h85l-66 -302q-12 -57 -12 -80q0 -35 25 -53.5t65 -18.5q68 0 119.5 50t65.5 118l60 286h85z" />
    <glyph glyph-name="pi" unicode="&#x3c0;" horiz-adv-x="574" 
d="M565 448h-79l-64 -301q-21 -95 -17 -147h-79q-10 30 13 140l66 308h-176q-28 -106 -78 -244t-90 -204h-78q43 78 91.5 212t73.5 236q-74 0 -112 -12v54q49 28 151 28h401z" />
    <glyph glyph-name="uni2010" unicode="&#x2010;" horiz-adv-x="389" 
d="M26 238l16 80h290l-16 -80h-290z" />
    <glyph glyph-name="endash" unicode="&#x2013;" horiz-adv-x="500" 
d="M-23 238l16 80h500l-16 -80h-500z" />
    <glyph glyph-name="emdash" unicode="&#x2014;" horiz-adv-x="1000" 
d="M107 238l16 80h740l-16 -80h-740z" />
    <glyph glyph-name="quoteleft" unicode="&#x2018;" horiz-adv-x="278" 
d="M246 567l-24 -111h-111q4 17 11.5 56t12 59t16.5 50.5t26.5 46.5t40 29.5t59.5 16.5l-10 -48q-25 -4 -41.5 -21t-22 -32.5t-13.5 -45.5h56z" />
    <glyph glyph-name="quoteright" unicode="&#x2019;" horiz-adv-x="278" 
d="M138 603l24 111h111q-4 -17 -11.5 -56t-12 -59t-16.5 -50.5t-26.5 -46.5t-40 -29.5t-59.5 -16.5l10 48q25 4 41.5 21t22 32.5t13.5 45.5h-56z" />
    <glyph glyph-name="quotesinglbase" unicode="&#x201a;" horiz-adv-x="278" 
d="M-2 0l24 111h111q-4 -17 -11.5 -56t-12 -59t-16.5 -50.5t-26.5 -46.5t-40 -29.5t-59.5 -16.5l10 48q25 4 41.5 21t22 32.5t13.5 45.5h-56z" />
    <glyph glyph-name="quotedblleft" unicode="&#x201c;" horiz-adv-x="426" 
d="M406 567l-24 -111h-111q4 17 11.5 56t12 59t16.5 50.5t26.5 46.5t40 29.5t59.5 16.5l-10 -48q-25 -4 -41.5 -21t-22 -32.5t-13.5 -45.5h56zM224 567l-24 -111h-111q4 17 11.5 56t12 59t16.5 50.5t26.5 46.5t40 29.5t59.5 16.5l-10 -48q-25 -4 -41.5 -21t-22 -32.5
t-13.5 -45.5h56z" />
    <glyph glyph-name="quotedblright" unicode="&#x201d;" horiz-adv-x="426" 
d="M116 603l24 111h111q-4 -17 -11.5 -56t-12 -59t-16.5 -50.5t-26.5 -46.5t-40 -29.5t-59.5 -16.5l10 48q25 4 41.5 21t22 32.5t13.5 45.5h-56zM298 603l24 111h111q-4 -17 -11.5 -56t-12 -59t-16.5 -50.5t-26.5 -46.5t-40 -29.5t-59.5 -16.5l10 48q25 4 41.5 21t22 32.5
t13.5 45.5h-56z" />
    <glyph glyph-name="quotedblbase" unicode="&#x201e;" horiz-adv-x="426" 
d="M-5 0l24 111h111q-4 -17 -11.5 -56t-12 -59t-16.5 -50.5t-26.5 -46.5t-40 -29.5t-59.5 -16.5l10 48q25 4 41.5 21t22 32.5t13.5 45.5h-56zM177 0l24 111h111q-4 -17 -11.5 -56t-12 -59t-16.5 -50.5t-26.5 -46.5t-40 -29.5t-59.5 -16.5l10 48q25 4 41.5 21t22 32.5
t13.5 45.5h-56z" />
    <glyph glyph-name="dagger" unicode="&#x2020;" 
d="M128 -155l126 597h-191l16 75h191l42 197h85l-42 -197h191l-16 -75h-191l-126 -597h-85z" />
    <glyph glyph-name="daggerdbl" unicode="&#x2021;" 
d="M128 -155l42 197h-191l16 75h191l68 325h-191l16 75h191l42 197h85l-42 -197h191l-16 -75h-191l-68 -325h191l-16 -75h-191l-42 -197h-85z" />
    <glyph glyph-name="bullet" unicode="&#x2022;" horiz-adv-x="500" 
d="M72 357q0 74 52 126t126 52t126.5 -52t52.5 -126t-52.5 -126.5t-126.5 -52.5t-126 52.5t-52 126.5z" />
    <glyph glyph-name="ellipsis" unicode="&#x2026;" horiz-adv-x="1000" 
d="M39 0l24 111h111l-24 -111h-111zM372 0l24 111h111l-24 -111h-111zM705 0l24 111h111l-24 -111h-111z" />
    <glyph glyph-name="perthousand" unicode="&#x2030;" horiz-adv-x="1074" 
d="M723 127q0 86 45.5 147t128.5 61q60 0 90 -36t30 -98q0 -86 -44.5 -149.5t-127.5 -63.5q-122 0 -122 139zM791 127q0 -34 14.5 -59t43.5 -25q46 0 74.5 50.5t25.5 102.5q0 34 -14.5 59t-43.5 25q-46 0 -74.5 -50.5t-25.5 -102.5zM48 501q0 86 45.5 147t128.5 61
q60 0 90 -36t30 -98q0 -86 -44.5 -149.5t-127.5 -63.5q-122 0 -122 139zM116 501q0 -34 14.5 -59t43.5 -25q46 0 74.5 50.5t25.5 102.5q0 34 -14.5 59t-43.5 25q-46 0 -74.5 -50.5t-25.5 -102.5zM373 127q0 86 45.5 147t128.5 61q60 0 90 -36t30 -98q0 -86 -44.5 -149.5
t-127.5 -63.5q-122 0 -122 139zM441 127q0 -34 14.5 -59t43.5 -25q46 0 74.5 50.5t25.5 102.5q0 34 -14.5 59t-43.5 25q-46 0 -74.5 -50.5t-25.5 -102.5zM104 -28l435 753h64l-435 -753h-64z" />
    <glyph glyph-name="guilsinglleft" unicode="&#x2039;" horiz-adv-x="259" 
d="M153 114l-123 136l22 92l174 100l-21 -85l-120 -68l87 -90z" />
    <glyph glyph-name="guilsinglright" unicode="&#x203a;" horiz-adv-x="259" 
d="M92 442l123 -136l-22 -92l-174 -100l21 85l120 68l-87 90z" />
    <glyph glyph-name="fraction" unicode="&#x2044;" horiz-adv-x="167" 
d="M-166 -28l435 753h64l-435 -753h-64z" />
    <glyph glyph-name="Euro" unicode="&#x20ac;" 
d="M586 660l-42 -75q-66 56 -139 56q-153 0 -223 -191h325l-34 -59h-308l-9 -57h299l-34 -59h-267q4 -98 48 -156.5t138 -58.5q51 0 91 18t94 55l-21 -101q-85 -49 -175 -49q-124 0 -189.5 81.5t-67.5 210.5h-78l33 59h47l8 57h-67l33 59h48q35 118 116 194t197 76
q93 0 177 -60z" />
    <glyph glyph-name="afii61289" unicode="&#x2113;" horiz-adv-x="487" 
d="M383 153l30 -34q-92 -126 -216 -126q-81 0 -111 50.5t-17 130.5q1 2 1 6t1 6q-26 -17 -66 -46l-13 47l44.5 32t48.5 36l57 270q27 125 84.5 183t123.5 58q62 0 84 -46t7 -118q-34 -162 -282 -362l-7 -34q-16 -75 7 -112t69 -37q42 0 83 28.5t72 67.5zM221 530l-45 -212
q185 165 210 284q22 104 -48 104q-32 0 -65 -42.5t-52 -133.5z" />
    <glyph glyph-name="trademark" unicode="&#x2122;" horiz-adv-x="990" 
d="M390 714v-55h-129v-357h-68v357h-129v55h326zM926 714v-412h-68v344h-2l-135 -344h-43l-135 344h-2v-344h-68v412h105l123 -313l121 313h104z" />
    <glyph glyph-name="Omega" unicode="&#x2126;" horiz-adv-x="718" 
d="M132 66l1 3q-47 51 -68 130t-1 176q31 144 136 237.5t235 93.5q87 0 145.5 -47t77.5 -120.5t1 -159.5q-22 -100 -78.5 -181t-123.5 -129v-3h149l-14 -66h-243l10 49q72 41 131.5 122.5t83.5 192.5q11 68 3 129t-49.5 103t-108.5 42q-97 0 -174 -79t-102 -198
q-23 -105 2.5 -189.5t78.5 -122.5l-11 -49h-242l14 66h147z" />
    <glyph glyph-name="estimated" unicode="&#x212e;" horiz-adv-x="942" 
d="M908 338h-648q-6 0 -6 -4v-196q0 -12 9 -23q103 -106 245 -106q154 0 258 119h58q-55 -64 -138.5 -101.5t-178.5 -37.5q-166 0 -283 105t-117 254t117 255t283 106t283.5 -106t117.5 -255v-10zM761 364v197q0 14 -10 24q-104 102 -243 102q-141 0 -244 -105
q-10 -10 -10 -25v-193q0 -6 6 -6h497q4 0 4 6z" />
    <glyph glyph-name="partialdiff" unicode="&#x2202;" horiz-adv-x="549" 
d="M166 665l-15 59q82 56 181 56q107 0 160 -98t15 -279q-39 -182 -132.5 -296.5t-218.5 -114.5q-62 0 -100.5 35t-45.5 86.5t2 109.5q24 113 101 183.5t165 70.5q61 0 97 -31t47 -63h1q1 6 4.5 21.5t5.5 21.5q27 125 -9.5 206t-114.5 81q-73 0 -143 -48zM178 60h1
q66 0 126 72t92 174q-5 38 -36 72t-83 34q-60 0 -114.5 -56t-71.5 -133q-15 -71 8.5 -117t77.5 -46z" />
    <glyph glyph-name="Delta" unicode="&#x2206;" horiz-adv-x="648" 
d="M-46 0l12 54l387 659h94l105 -658l-12 -55h-586zM50 66h417l-62 370q-2 21 -13 90t-13 95h-4q-9 -21 -46.5 -84.5t-48.5 -84.5z" />
    <glyph glyph-name="product" unicode="&#x220f;" horiz-adv-x="770" 
d="M744 621h-108v-717h-80v717h-272v-717h-80v717h-108v73h648v-73z" />
    <glyph glyph-name="summation" unicode="&#x2211;" horiz-adv-x="622" 
d="M601 -96h-508v53l265 341l-254 340v56h482v-69h-370v-4l234 -311l-254 -327v-3h405v-76z" />
    <glyph glyph-name="minus" unicode="&#x2212;" horiz-adv-x="600" 
d="M48 219v68h504v-68h-504z" />
    <glyph glyph-name="uni2215" unicode="&#x2215;" horiz-adv-x="167" 
d="M-166 -28l435 753h64l-435 -753h-64z" />
    <glyph glyph-name="uni2219" unicode="&#x2219;" horiz-adv-x="278" 
d="M67 253q0 27 19.5 45.5t44.5 18.5q27 0 45.5 -18.5t18.5 -45.5q0 -28 -18.5 -46t-45.5 -18q-26 0 -45 19t-19 45z" />
    <glyph glyph-name="radical" unicode="&#x221a;" horiz-adv-x="646" 
d="M648 826l-222 -974h-70l-159 459l-74 -28l-16 48l140 55l125 -365q12 -48 17 -73h2q6 36 13 74l184 804h60z" />
    <glyph glyph-name="infinity" unicode="&#x221e;" horiz-adv-x="790" 
d="M741 289v-1q0 -71 -45.5 -115.5t-107.5 -44.5q-45 0 -87 27.5t-96 90.5q-49 -57 -91 -87.5t-97 -30.5q-62 0 -106 45t-44 111q0 69 45 114t113 45q51 0 93.5 -30.5t90.5 -87.5q3 3 8 9q24 27 38 41t37.5 33t48.5 27t54 8q65 0 105.5 -43t40.5 -111zM224 177h1
q13 0 25.5 3t26 11l21.5 12.5t23 19l19 18.5t20.5 22t17.5 19q-24 30 -35 42.5t-33.5 33.5t-44.5 29.5t-47 8.5q-45 0 -71.5 -33t-26.5 -80q0 -44 29 -75t75 -31zM589 396h-1q-23 0 -48.5 -14t-38 -25t-39 -40t-27.5 -30q56 -62 87.5 -86t68.5 -24q45 0 71.5 32.5t26.5 74.5
q0 51 -28 81.5t-72 30.5z" />
    <glyph glyph-name="integral" unicode="&#x222b;" horiz-adv-x="433" 
d="M417 836l-12 -56q-17 11 -37 11q-32 0 -50 -24q-33 -40 -33 -177q0 -77 6.5 -245.5t6.5 -251.5q0 -137 -42 -201q-32 -53 -102 -53q-40 0 -67 16l14 58q22 -11 45 -11q28 0 46 22q33 43 33 169q0 84 -7 255t-7 250q0 83 12.5 132t42.5 80q36 40 96 40q33 0 55 -14z" />
    <glyph glyph-name="approxequal" unicode="&#x2248;" horiz-adv-x="575" 
d="M497 431l32 -28q-48 -96 -129 -96q-28 0 -51.5 9.5t-64.5 32.5q-59 34 -93 34q-31 0 -52.5 -19t-45.5 -55l-34 28q50 96 139 96q14 0 27 -2.5t26 -8t20 -9t21 -12t17 -9.5q4 -2 16 -9t16.5 -9l14 -6.5t15 -6t14 -3t17.5 -1.5q29 0 51 18t44 56zM497 259l32 -28
q-48 -95 -129 -95q-28 0 -51 9t-65 32q-60 34 -93 34q-32 0 -54 -19.5t-44 -54.5l-34 28q23 44 59.5 70t78.5 26q14 0 27.5 -2.5t26 -7.5t20.5 -9t21 -11.5t17 -9.5t15.5 -8.5l16 -9t14 -6.5t15.5 -6t15 -3.5t18 -1.5q29 0 50 17.5t44 55.5z" />
    <glyph glyph-name="notequal" unicode="&#x2260;" horiz-adv-x="593" 
d="M433 503l-44 -97h154v-51h-175l-66 -145h241v-51h-262l-53 -118l-41 19l45 99h-148v51h169l66 145h-235v51h256l52 115z" />
    <glyph glyph-name="lessequal" unicode="&#x2264;" horiz-adv-x="610" 
d="M557 96l-451 224v54l451 225v-62l-396 -188v-2l396 -190v-61zM560 3h-459v52h459v-52z" />
    <glyph glyph-name="greaterequal" unicode="&#x2265;" horiz-adv-x="610" 
d="M107 599l451 -225v-54l-451 -224v61l396 189v2l-396 189v62zM559 3h-457v52h457v-52z" />
    <glyph glyph-name="lozenge" unicode="&#x25ca;" horiz-adv-x="645" 
d="M592 347l-201 -393h-65l-199 393l201 393h66zM519 345l-139 274q-10 21 -19 53h-3q-5 -19 -19 -53l-139 -270l141 -277q11 -28 17 -51h4q6 26 17 50z" />
    <glyph glyph-name="fi" unicode="&#xfb01;" horiz-adv-x="519" 
d="M292 0l108 517h85l-108 -517h-85zM527 714l-22 -104h-86l22 104h86zM23 0l96 442h-88l15 75h88l10.5 43.5t11 44t12.5 36.5t19 34.5t26 23.5t38 18t50 5q40 0 71 -8l-14 -72q-22 5 -40 5q-24 0 -40.5 -6.5t-26 -22t-14 -28t-10 -37t-9.5 -36.5h99l-14 -75h-100l-95 -442
h-85z" />
    <glyph glyph-name="fl" unicode="&#xfb02;" horiz-adv-x="519" 
d="M23 0l96 442h-88l15 75h88l10.5 43.5t11 44t12.5 36.5t19 34.5t26 23.5t38 18t50 5q40 0 71 -8l-14 -72q-22 5 -40 5q-24 0 -40.5 -6.5t-26 -22t-14 -28t-10 -37t-9.5 -36.5h99l-14 -75h-100l-95 -442h-85zM292 0l150 714h85l-150 -714h-85z" />
    <glyph glyph-name="a.superior" horiz-adv-x="311" 
d="M135 606h-60q6 50 47.5 76.5t99.5 26.5q45 0 86 -18.5t41 -54.5q0 -6 -1.5 -15.5t-4.5 -21t-4 -16.5l-20 -83q-13 -55 -13 -58q0 -12 17 -12q7 0 15 3l-8 -46q-16 -7 -34 -7q-23 0 -34.5 12.5t-9.5 33.5h-3q-35 -46 -97 -46q-119 0 -119 93q0 47 38.5 69t91.5 26
q31 2 48.5 4.5t38 8t30 16.5t9.5 27q0 35 -67 35q-76 0 -87 -53zM262 499l12 45h-2q-7 -6 -20 -10t-24.5 -5t-31.5 -3l-30 -3q-35 -4 -54 -16t-19 -40q0 -18 17 -27.5t42 -9.5q53 3 77 19t33 50z" />
    <glyph glyph-name="o.superior" horiz-adv-x="344" 
d="M104 513q0 -37 22 -60t63 -23q55 0 90.5 44.5t35.5 100.5q0 37 -21.5 60.5t-63.5 23.5q-58 0 -92 -45.5t-34 -100.5zM44 512q0 80 52.5 138.5t137.5 58.5q68 0 104.5 -34t36.5 -96q0 -80 -51.5 -139.5t-134.5 -59.5q-67 0 -106.5 33.5t-38.5 98.5z" />
    <glyph glyph-name="one.superior" horiz-adv-x="333" 
d="M304 709l-90 -429h-66l66 325q-51 -17 -117 -17l9 50q51 0 92.5 20.5t58.5 50.5h47z" />
    <glyph glyph-name="two.superior" horiz-adv-x="333" 
d="M123 561h-68q7 68 51 108t120 40q58 0 96 -31.5t38 -83.5q0 -83 -107 -142l-63 -36l-46.5 -27t-35 -25.5t-21.5 -28.5h231l-10 -55h-296q0 57 28 92t96 78l64 40q4 2 20 12l22 14t18 14t17.5 18t10 19.5t4.5 23.5q0 30 -19 46.5t-53 16.5q-44 -2 -69.5 -27t-27.5 -66z
" />
    <glyph glyph-name="three.superior" horiz-adv-x="333" 
d="M160 477l9 50q124 -9 124 73q0 54 -74 54q-39 0 -63 -21.5t-26 -56.5h-68q3 59 46.5 96t113.5 37q60 0 99.5 -28t39.5 -80q0 -35 -24.5 -62t-63.5 -36v-2q65 -22 65 -89q0 -54 -46.5 -96.5t-125.5 -42.5q-77 0 -114.5 36.5t-34.5 103.5h68q-2 -41 15 -63t68 -22
q46 0 74 22t28 63q0 23 -9.5 37.5t-25 20t-35.5 7t-40 -0.5z" />
    </font>
</defs>
</svg>
